<svg width="21" height="20" viewBox="0 0 21 20" fill="none" xmlns="http://www.w3.org/2000/svg">
<path id="Vector" d="M10.5 0C4.9774 0 0.5 4.4774 0.5 10C0.5 15.5226 4.9774 20 10.5 20C16.0226 20 20.5 15.5226 20.5 10C20.5 4.4774 16.0226 0 10.5 0ZM15.1154 11.5385H10.5C10.296 11.5385 10.1003 11.4574 9.95607 11.3132C9.81181 11.1689 9.73077 10.9732 9.73077 10.7692V3.84615C9.73077 3.64214 9.81181 3.44648 9.95607 3.30223C10.1003 3.15797 10.296 3.07692 10.5 3.07692C10.704 3.07692 10.8997 3.15797 11.0439 3.30223C11.1882 3.44648 11.2692 3.64214 11.2692 3.84615V10H15.1154C15.3194 10 15.5151 10.081 15.6593 10.2253C15.8036 10.3696 15.8846 10.5652 15.8846 10.7692C15.8846 10.9732 15.8036 11.1689 15.6593 11.3132C15.5151 11.4574 15.3194 11.5385 15.1154 11.5385Z" fill="black"/>
</svg>
