<svg width="63" height="63" viewBox="0 0 63 63" fill="none" xmlns="http://www.w3.org/2000/svg">
<rect x="6" y="6" width="51" height="51" rx="25.5" fill="#0FB50B"/>
<path fill-rule="evenodd" clip-rule="evenodd" d="M37.4391 20C38.0664 19.9999 38.6721 20.2273 39.1424 20.6396C39.6127 21.0518 39.9151 21.6205 39.9929 22.2387L40.1936 23.8333H41.053C41.4891 23.8332 41.9197 23.9292 42.3139 24.1145C42.708 24.2997 43.0559 24.5695 43.3323 24.9045C43.6088 25.2394 43.8069 25.6311 43.9124 26.0513C44.018 26.4716 44.0282 26.9098 43.9426 27.3344L43.684 28.6186C43.4911 29.5755 43.0299 30.4587 42.3533 31.1664C41.6768 31.874 40.8126 32.3773 39.8604 32.6181C39.207 33.9976 38.218 35.1937 36.9826 36.0985C35.7473 37.0034 34.3045 37.5884 32.7845 37.8007V40.4444H36.6441C36.9853 40.4444 37.3125 40.5791 37.5538 40.8187C37.7951 41.0583 37.9306 41.3833 37.9306 41.7222C37.9306 42.0611 37.7951 42.3861 37.5538 42.6257C37.3125 42.8654 36.9853 43 36.6441 43H26.3531C26.0119 43 25.6847 42.8654 25.4434 42.6257C25.2021 42.3861 25.0666 42.0611 25.0666 41.7222C25.0666 41.3833 25.2021 41.0583 25.4434 40.8187C25.6847 40.5791 26.0119 40.4444 26.3531 40.4444H30.2127V37.8007C28.6932 37.588 27.2509 37.0028 26.016 36.098C24.7811 35.1932 23.7925 33.9972 23.1393 32.6181C22.1872 32.3773 21.323 31.874 20.6464 31.1664C19.9699 30.4587 19.5086 29.5755 19.3158 28.6186L19.0572 27.3332C18.9717 26.9087 18.9822 26.4707 19.0877 26.0508C19.1933 25.6308 19.3913 25.2393 19.6676 24.9045C19.9439 24.5698 20.2915 24.3 20.6854 24.1148C21.0793 23.9296 21.5096 23.8334 21.9454 23.8333H22.8049L23.0055 22.2387C23.0833 21.6205 23.3858 21.0518 23.8561 20.6396C24.3264 20.2273 24.9321 19.9999 25.5593 20H37.4391ZM37.4391 22.5556H25.5593L24.8865 27.8941C24.7693 28.8254 24.8528 29.7708 25.1315 30.6675C25.4103 31.5643 25.8778 32.3919 26.5032 33.0955C27.1286 33.7991 27.8974 34.3625 28.7588 34.7484C29.6201 35.1344 30.5543 35.334 31.4992 35.334C32.4442 35.334 33.3783 35.1344 34.2397 34.7484C35.101 34.3625 35.8699 33.7991 36.4953 33.0955C37.1206 32.3919 37.5882 31.5643 37.8669 30.6675C38.1457 29.7708 38.2292 28.8254 38.112 27.8941L37.4379 22.5556H37.4391ZM41.0543 26.3889H40.514L40.6645 27.5772C40.7288 28.096 40.7507 28.6097 40.7288 29.1144C40.8961 28.8806 41.0247 28.6186 41.107 28.3349L41.1611 28.1177L41.4184 26.8323C41.4377 26.738 41.4194 26.64 41.3673 26.559C41.3152 26.4779 41.2334 26.4201 41.1392 26.3978L41.0543 26.3889ZM22.4819 26.3889H21.9442C21.8889 26.3888 21.8343 26.4008 21.7842 26.4243C21.7342 26.4477 21.6901 26.4818 21.655 26.5243C21.6199 26.5667 21.5948 26.6163 21.5814 26.6696C21.5679 26.7229 21.5666 26.7784 21.5775 26.8323L21.8361 28.1164C21.9107 28.4857 22.0599 28.8231 22.2684 29.1131C22.2465 28.6097 22.2684 28.096 22.3327 27.5772L22.4819 26.3889Z" fill="white"/>
<rect x="1" y="1" width="61" height="61" rx="30.5" stroke="#0FB50B" stroke-width="2"/>
</svg>
