<svg width="85" height="85" viewBox="0 0 85 85" fill="none" xmlns="http://www.w3.org/2000/svg">
<g filter="url(#filter0_d_1798_534)">
<rect x="2" y="2" width="77" height="77" rx="38.5" fill="white"/>
<path d="M32.625 38.75C33.5533 38.75 34.4435 38.3812 35.0999 37.7249C35.7563 37.0685 36.125 36.1783 36.125 35.25C36.125 34.3217 35.7563 33.4315 35.0999 32.7751C34.4435 32.1187 33.5533 31.75 32.625 31.75H24.75V38.75H32.625ZM34.375 42.25H24.75V49.25H34.375C35.3033 49.25 36.1935 48.8812 36.8499 48.2249C37.5063 47.5685 37.875 46.6783 37.875 45.75C37.875 44.8217 37.5063 43.9315 36.8499 43.2751C36.1935 42.6187 35.3033 42.25 34.375 42.25ZM37.9852 39.751C39.2969 40.5397 40.314 41.7366 40.8806 43.1584C41.4473 44.5802 41.5323 46.1485 41.1227 47.6232C40.7132 49.098 39.8315 50.3978 38.6128 51.3237C37.3941 52.2497 35.9055 52.7507 34.375 52.75H21.25V28.25H32.625C33.9576 28.2502 35.2624 28.6307 36.3862 29.3468C37.51 30.063 38.406 31.0851 38.9689 32.2929C39.5319 33.5008 39.7383 34.8442 39.5641 36.1653C39.3898 37.4865 38.8421 38.7304 37.9852 39.751ZM46.625 30H56.25V32.625H46.625V30ZM59.75 44.875H46.625V45.3125C46.6246 46.3935 46.9882 47.4432 47.6572 48.2924C48.3262 49.1416 49.2616 49.7408 50.3127 49.9935C51.3638 50.2461 52.4693 50.1375 53.4512 49.6852C54.4331 49.2329 55.234 48.4631 55.725 47.5H59.4595C58.9263 49.4395 57.7082 51.12 56.0309 52.2302C54.3536 53.3404 52.3308 53.805 50.3372 53.538C48.3435 53.2711 46.5142 52.2905 45.1881 50.7781C43.8621 49.2657 43.1291 47.3239 43.125 45.3125V42.6875C43.125 40.4829 44.0008 38.3686 45.5597 36.8097C47.1186 35.2508 49.2329 34.375 51.4375 34.375C53.6421 34.375 55.7564 35.2508 57.3153 36.8097C58.8742 38.3686 59.75 40.4829 59.75 42.6875V44.875ZM56.068 41.375C55.782 40.3671 55.175 39.4801 54.3392 38.8484C53.5033 38.2168 52.4843 37.875 51.4366 37.875C50.389 37.875 49.3699 38.2168 48.5341 38.8484C47.6982 39.4801 47.0913 40.3671 46.8053 41.375H56.068Z" fill="black"/>
</g>
<defs>
<filter id="filter0_d_1798_534" x="0" y="0" width="85" height="85" filterUnits="userSpaceOnUse" color-interpolation-filters="sRGB">
<feFlood flood-opacity="0" result="BackgroundImageFix"/>
<feColorMatrix in="SourceAlpha" type="matrix" values="0 0 0 0 0 0 0 0 0 0 0 0 0 0 0 0 0 0 127 0" result="hardAlpha"/>
<feOffset dx="2" dy="2"/>
<feGaussianBlur stdDeviation="2"/>
<feComposite in2="hardAlpha" operator="out"/>
<feColorMatrix type="matrix" values="0 0 0 0 0 0 0 0 0 0 0 0 0 0 0 0 0 0 0.25 0"/>
<feBlend mode="normal" in2="BackgroundImageFix" result="effect1_dropShadow_1798_534"/>
<feBlend mode="normal" in="SourceGraphic" in2="effect1_dropShadow_1798_534" result="shape"/>
</filter>
</defs>
</svg>
