<svg width="59" height="59" viewBox="0 0 59 59" fill="none" xmlns="http://www.w3.org/2000/svg">
<g filter="url(#filter0_d_1798_554)">
<rect x="3" y="3" width="51" height="51" rx="25.5" fill="#DE59FF"/>
<path fill-rule="evenodd" clip-rule="evenodd" d="M27.6932 16H27.8068C28.7895 16 29.6081 16 30.2574 16.0874C30.9438 16.1793 31.5636 16.3826 32.0609 16.8799C32.5593 17.3783 32.7626 17.998 32.8544 18.6834C32.92 19.1643 32.9364 19.737 32.9408 20.3994C33.649 20.4224 34.2808 20.465 34.8426 20.5393C36.1237 20.712 37.1609 21.0749 37.9796 21.8925C38.7972 22.7112 39.1601 23.7484 39.3328 25.0295C39.5 26.2755 39.5 27.8659 39.5 29.8748V29.9973C39.5 32.0062 39.5 33.5977 39.3328 34.8426C39.1601 36.1237 38.7972 37.1609 37.9796 37.9796C37.1609 38.7972 36.1237 39.1601 34.8426 39.3328C33.5966 39.5 32.0062 39.5 29.9973 39.5H25.5027C23.4938 39.5 21.9023 39.5 20.6574 39.3328C19.3763 39.1601 18.3391 38.7972 17.5204 37.9796C16.7028 37.1609 16.3399 36.1237 16.1672 34.8426C16 33.5966 16 32.0062 16 29.9973V29.8748C16 27.8659 16 26.2744 16.1672 25.0295C16.3399 23.7484 16.7028 22.7112 17.5204 21.8925C18.3391 21.0749 19.3763 20.712 20.6574 20.5393C21.2886 20.4612 21.9234 20.4145 22.5592 20.3994C22.5636 19.737 22.5811 19.1643 22.6456 18.6834C22.7374 17.998 22.9407 17.3783 23.438 16.8799C23.9364 16.3826 24.5562 16.1803 25.2415 16.0874C25.8919 16 26.7116 16 27.6932 16ZM24.1999 20.3743C24.613 20.3721 25.047 20.3721 25.5027 20.3721H29.9973C30.453 20.3721 30.887 20.3721 31.3001 20.3743C31.2958 19.7513 31.2805 19.2813 31.2302 18.902C31.1613 18.3981 31.0444 18.1817 30.9023 18.0396C30.7602 17.8975 30.5438 17.7805 30.0388 17.7117C29.512 17.6417 28.8037 17.6395 27.75 17.6395C26.6963 17.6395 25.988 17.6417 25.4601 17.7128C24.9562 17.7805 24.7398 17.8975 24.5977 18.0407C24.4556 18.1828 24.3387 18.3981 24.2698 18.902C24.2195 19.2802 24.2042 19.7502 24.1999 20.3743ZM20.8749 22.1647C19.7753 22.3122 19.1413 22.5898 18.6779 23.0522C18.2167 23.5145 17.939 24.1485 17.7915 25.2481C17.6406 26.3706 17.6384 27.8517 17.6384 29.936C17.6384 32.0204 17.6406 33.5015 17.7915 34.6251C17.939 35.7236 18.2167 36.3576 18.679 36.8199C19.1413 37.2823 19.7753 37.5599 20.8749 37.7074C21.9985 37.8583 23.4785 37.8605 25.5629 37.8605H29.935C32.0193 37.8605 33.5004 37.8583 34.624 37.7074C35.7225 37.5599 36.3565 37.2823 36.8188 36.8199C37.2812 36.3576 37.5588 35.7236 37.7063 34.624C37.8572 33.5015 37.8594 32.0204 37.8594 29.936C37.8594 27.8517 37.8572 26.3717 37.7063 25.247C37.5588 24.1485 37.2812 23.5145 36.8188 23.0522C36.3565 22.5898 35.7225 22.3122 34.6229 22.1647C33.5004 22.0138 32.0193 22.0116 29.935 22.0116H25.5629C23.4785 22.0116 21.9996 22.0138 20.8749 22.1647Z" fill="white"/>
<path d="M33.2151 24.471C33.2151 24.7608 33.1 25.0389 32.895 25.2438C32.69 25.4488 32.412 25.564 32.1221 25.564C31.8322 25.564 31.5542 25.4488 31.3492 25.2438C31.1442 25.0389 31.0291 24.7608 31.0291 24.471C31.0291 24.1811 31.1442 23.9031 31.3492 23.6981C31.5542 23.4931 31.8322 23.3779 32.1221 23.3779C32.412 23.3779 32.69 23.4931 32.895 23.6981C33.1 23.9031 33.2151 24.1811 33.2151 24.471ZM24.4709 24.471C24.4709 24.7608 24.3558 25.0389 24.1508 25.2438C23.9458 25.4488 23.6678 25.564 23.3779 25.564C23.088 25.564 22.81 25.4488 22.605 25.2438C22.4 25.0389 22.2849 24.7608 22.2849 24.471C22.2849 24.1811 22.4 23.9031 22.605 23.6981C22.81 23.4931 23.088 23.3779 23.3779 23.3779C23.6678 23.3779 23.9458 23.4931 24.1508 23.6981C24.3558 23.9031 24.4709 24.1811 24.4709 24.471Z" fill="white"/>
<rect x="6" y="6" width="45" height="45" rx="22.5" stroke="#DE59FF" stroke-width="2"/>
</g>
<defs>
<filter id="filter0_d_1798_554" x="0" y="0" width="59" height="59" filterUnits="userSpaceOnUse" color-interpolation-filters="sRGB">
<feFlood flood-opacity="0" result="BackgroundImageFix"/>
<feColorMatrix in="SourceAlpha" type="matrix" values="0 0 0 0 0 0 0 0 0 0 0 0 0 0 0 0 0 0 127 0" result="hardAlpha"/>
<feOffset dx="1" dy="1"/>
<feGaussianBlur stdDeviation="2"/>
<feComposite in2="hardAlpha" operator="out"/>
<feColorMatrix type="matrix" values="0 0 0 0 0 0 0 0 0 0 0 0 0 0 0 0 0 0 0.25 0"/>
<feBlend mode="normal" in2="BackgroundImageFix" result="effect1_dropShadow_1798_554"/>
<feBlend mode="normal" in="SourceGraphic" in2="effect1_dropShadow_1798_554" result="shape"/>
</filter>
</defs>
</svg>
