<svg width="71" height="71" viewBox="0 0 71 71" fill="none" xmlns="http://www.w3.org/2000/svg">
<g filter="url(#filter0_d_1825_408)">
<rect x="9" y="9" width="51" height="51" rx="25.5" fill="#DE59FF" shape-rendering="crispEdges"/>
<path fill-rule="evenodd" clip-rule="evenodd" d="M33.6932 22H33.8068C34.7895 22 35.6081 22 36.2574 22.0874C36.9438 22.1793 37.5636 22.3826 38.0609 22.8799C38.5593 23.3783 38.7626 23.998 38.8544 24.6834C38.92 25.1643 38.9364 25.737 38.9408 26.3994C39.649 26.4224 40.2808 26.465 40.8426 26.5393C42.1237 26.712 43.1609 27.0749 43.9796 27.8925C44.7972 28.7112 45.1601 29.7484 45.3328 31.0295C45.5 32.2755 45.5 33.8659 45.5 35.8748V35.9973C45.5 38.0062 45.5 39.5977 45.3328 40.8426C45.1601 42.1237 44.7972 43.1609 43.9796 43.9796C43.1609 44.7972 42.1237 45.1601 40.8426 45.3328C39.5966 45.5 38.0062 45.5 35.9973 45.5H31.5027C29.4938 45.5 27.9023 45.5 26.6574 45.3328C25.3763 45.1601 24.3391 44.7972 23.5204 43.9796C22.7028 43.1609 22.3399 42.1237 22.1672 40.8426C22 39.5966 22 38.0062 22 35.9973V35.8748C22 33.8659 22 32.2744 22.1672 31.0295C22.3399 29.7484 22.7028 28.7112 23.5204 27.8925C24.3391 27.0749 25.3763 26.712 26.6574 26.5393C27.2886 26.4612 27.9234 26.4145 28.5592 26.3994C28.5636 25.737 28.5811 25.1643 28.6456 24.6834C28.7374 23.998 28.9407 23.3783 29.438 22.8799C29.9364 22.3826 30.5562 22.1803 31.2415 22.0874C31.8919 22 32.7116 22 33.6932 22ZM30.1999 26.3743C30.613 26.3721 31.047 26.3721 31.5027 26.3721H35.9973C36.453 26.3721 36.887 26.3721 37.3001 26.3743C37.2958 25.7513 37.2805 25.2813 37.2302 24.902C37.1613 24.3981 37.0444 24.1817 36.9023 24.0396C36.7602 23.8975 36.5438 23.7805 36.0388 23.7117C35.512 23.6417 34.8037 23.6395 33.75 23.6395C32.6963 23.6395 31.988 23.6417 31.4601 23.7128C30.9562 23.7805 30.7398 23.8975 30.5977 24.0407C30.4556 24.1828 30.3387 24.3981 30.2698 24.902C30.2195 25.2802 30.2042 25.7502 30.1999 26.3743ZM26.8749 28.1647C25.7753 28.3122 25.1413 28.5898 24.6779 29.0522C24.2167 29.5145 23.939 30.1485 23.7915 31.2481C23.6406 32.3706 23.6384 33.8517 23.6384 35.936C23.6384 38.0204 23.6406 39.5015 23.7915 40.6251C23.939 41.7236 24.2167 42.3576 24.679 42.8199C25.1413 43.2823 25.7753 43.5599 26.8749 43.7074C27.9985 43.8583 29.4785 43.8605 31.5629 43.8605H35.935C38.0193 43.8605 39.5004 43.8583 40.624 43.7074C41.7225 43.5599 42.3565 43.2823 42.8188 42.8199C43.2812 42.3576 43.5588 41.7236 43.7063 40.624C43.8572 39.5015 43.8594 38.0204 43.8594 35.936C43.8594 33.8517 43.8572 32.3717 43.7063 31.247C43.5588 30.1485 43.2812 29.5145 42.8188 29.0522C42.3565 28.5898 41.7225 28.3122 40.6229 28.1647C39.5004 28.0138 38.0193 28.0116 35.935 28.0116H31.5629C29.4785 28.0116 27.9996 28.0138 26.8749 28.1647Z" fill="white"/>
<path d="M39.2151 30.471C39.2151 30.7608 39.0999 31.0389 38.8949 31.2438C38.69 31.4488 38.4119 31.564 38.1221 31.564C37.8322 31.564 37.5542 31.4488 37.3492 31.2438C37.1442 31.0389 37.029 30.7608 37.029 30.471C37.029 30.1811 37.1442 29.9031 37.3492 29.6981C37.5542 29.4931 37.8322 29.3779 38.1221 29.3779C38.4119 29.3779 38.69 29.4931 38.8949 29.6981C39.0999 29.9031 39.2151 30.1811 39.2151 30.471ZM30.4709 30.471C30.4709 30.7608 30.3557 31.0389 30.1508 31.2438C29.9458 31.4488 29.6678 31.564 29.3779 31.564C29.088 31.564 28.81 31.4488 28.605 31.2438C28.4 31.0389 28.2849 30.7608 28.2849 30.471C28.2849 30.1811 28.4 29.9031 28.605 29.6981C28.81 29.4931 29.088 29.3779 29.3779 29.3779C29.6678 29.3779 29.9458 29.4931 30.1508 29.6981C30.3557 29.9031 30.4709 30.1811 30.4709 30.471Z" fill="white"/>
<rect x="4" y="4" width="61" height="61" rx="30.5" stroke="#DE59FF" stroke-width="2"/>
</g>
<defs>
<filter id="filter0_d_1825_408" x="0" y="0" width="71" height="71" filterUnits="userSpaceOnUse" color-interpolation-filters="sRGB">
<feFlood flood-opacity="0" result="BackgroundImageFix"/>
<feColorMatrix in="SourceAlpha" type="matrix" values="0 0 0 0 0 0 0 0 0 0 0 0 0 0 0 0 0 0 127 0" result="hardAlpha"/>
<feOffset dx="1" dy="1"/>
<feGaussianBlur stdDeviation="2"/>
<feComposite in2="hardAlpha" operator="out"/>
<feColorMatrix type="matrix" values="0 0 0 0 0 0 0 0 0 0 0 0 0 0 0 0 0 0 0.25 0"/>
<feBlend mode="normal" in2="BackgroundImageFix" result="effect1_dropShadow_1825_408"/>
<feBlend mode="normal" in="SourceGraphic" in2="effect1_dropShadow_1825_408" result="shape"/>
</filter>
</defs>
</svg>
