<svg width="44" height="44" viewBox="0 0 44 44" fill="none" xmlns="http://www.w3.org/2000/svg">
<g id="Vector" filter="url(#filter0_d_1798_511)">
<path d="M39 21C39 30.9411 30.9411 39 21 39C11.0589 39 3 30.9411 3 21C3 11.0589 11.0589 3 21 3C30.9411 3 39 11.0589 39 21Z" fill="white"/>
<path d="M27.6816 19.849L20.1754 27.3552C18.7329 28.7977 16.3962 28.7977 14.9537 27.3552C13.5112 25.9127 13.5112 23.576 14.9537 22.1335L23.1126 13.9745C23.5454 13.5418 24.1323 13.2986 24.7444 13.2986C25.3564 13.2986 25.9434 13.5418 26.3762 13.9745C26.8089 14.4073 27.0521 14.9943 27.0521 15.6063C27.0521 16.2184 26.8089 16.8053 26.3762 17.2381L19.5227 24.0916C19.1637 24.4506 18.5762 24.4506 18.2172 24.0916C17.8582 23.7326 17.8582 23.1452 18.2172 22.7862L24.418 16.5854L23.439 15.6063L17.2382 21.8071C16.8054 22.2399 16.5623 22.8268 16.5623 23.4389C16.5623 24.0509 16.8054 24.6379 17.2382 25.0707C17.6709 25.5034 18.2579 25.7466 18.87 25.7466C19.482 25.7466 20.069 25.5034 20.5017 25.0707L27.3552 18.2172C28.7977 16.7747 28.7977 14.438 27.3552 12.9955C25.9127 11.553 23.576 11.553 22.1335 12.9955L13.9746 21.1544C11.9903 23.1386 11.9903 26.35 13.9746 28.3342C15.9588 30.3185 19.1702 30.3185 21.1545 28.3342L28.6607 20.828L27.6816 19.849Z" fill="#0057B1"/>
</g>
<defs>
<filter id="filter0_d_1798_511" x="0" y="0" width="44" height="44" filterUnits="userSpaceOnUse" color-interpolation-filters="sRGB">
<feFlood flood-opacity="0" result="BackgroundImageFix"/>
<feColorMatrix in="SourceAlpha" type="matrix" values="0 0 0 0 0 0 0 0 0 0 0 0 0 0 0 0 0 0 127 0" result="hardAlpha"/>
<feOffset dx="1" dy="1"/>
<feGaussianBlur stdDeviation="2"/>
<feComposite in2="hardAlpha" operator="out"/>
<feColorMatrix type="matrix" values="0 0 0 0 0 0 0 0 0 0 0 0 0 0 0 0 0 0 0.25 0"/>
<feBlend mode="normal" in2="BackgroundImageFix" result="effect1_dropShadow_1798_511"/>
<feBlend mode="normal" in="SourceGraphic" in2="effect1_dropShadow_1798_511" result="shape"/>
</filter>
</defs>
</svg>
