<svg width="44" height="44" viewBox="0 0 44 44" fill="none" xmlns="http://www.w3.org/2000/svg">
<g id="Vector" filter="url(#filter0_d_1798_512)">
<path d="M39 21C39 30.9411 30.9411 39 21 39C11.0589 39 3 30.9411 3 21C3 11.0589 11.0589 3 21 3C30.9411 3 39 11.0589 39 21Z" fill="white"/>
<path d="M19.5267 19.5258C20.2826 18.7699 21.3002 18.3335 22.3689 18.3068C23.4376 18.2802 24.4756 18.6653 25.2683 19.3825L25.4192 19.5258L27.7758 21.8833C28.5434 22.6522 28.9802 23.6905 28.9933 24.7768C29.0064 25.8632 28.5947 26.9116 27.8459 27.6988C27.0971 28.4859 26.0705 28.9495 24.9848 28.9907C23.8992 29.0318 22.8404 28.6474 22.0342 27.9192L21.8842 27.7758L20.1158 26.0075C19.9664 25.8575 19.8796 25.6563 19.8731 25.4447C19.8667 25.2331 19.941 25.0269 20.081 24.8681C20.2211 24.7093 20.4163 24.6097 20.6271 24.5897C20.8378 24.5696 21.0483 24.6305 21.2158 24.76L21.2942 24.8292L23.0625 26.5975C23.5209 27.0586 24.1409 27.3229 24.7909 27.3345C25.441 27.346 26.07 27.1039 26.5445 26.6594C27.019 26.215 27.3017 25.6031 27.3326 24.9537C27.3635 24.3043 27.1402 23.6683 26.71 23.1808L26.5975 23.0617L24.2408 20.7042C24.0087 20.472 23.7331 20.2878 23.4297 20.1621C23.1264 20.0365 22.8013 19.9718 22.4729 19.9718C22.1446 19.9718 21.8195 20.0365 21.5161 20.1621C21.2128 20.2878 20.9372 20.472 20.705 20.7042C20.5478 20.856 20.3373 20.94 20.1188 20.9381C19.9003 20.9362 19.6913 20.8485 19.5368 20.694C19.3823 20.5395 19.2947 20.3305 19.2928 20.112C19.2909 19.8935 19.3749 19.683 19.5267 19.5258ZM14.2233 14.2225C14.9793 13.4666 15.9968 13.0302 17.0655 13.0035C18.1342 12.9768 19.1723 13.3619 19.965 14.0792L20.1158 14.2225L21.8833 15.9917C22.0328 16.1416 22.1196 16.3429 22.126 16.5545C22.1325 16.7661 22.0582 16.9723 21.9181 17.1311C21.7781 17.2899 21.5829 17.3894 21.3721 17.4095C21.1613 17.4296 20.9508 17.3687 20.7833 17.2392L20.705 17.17L18.9375 15.4025C18.4783 14.9463 17.8601 14.686 17.2129 14.6763C16.5657 14.6666 15.9399 14.9084 15.4673 15.3507C14.9947 15.7929 14.712 16.4013 14.6788 17.0477C14.6456 17.6941 14.8644 18.3283 15.2892 18.8167L15.4017 18.9367L17.7592 21.2942C18.228 21.7628 18.8638 22.0261 19.5267 22.0261C20.1896 22.0261 20.8253 21.7628 21.2942 21.2942C21.3715 21.2167 21.4634 21.1553 21.5645 21.1134C21.6656 21.0715 21.774 21.0499 21.8835 21.0498C21.9929 21.0498 22.1013 21.0713 22.2024 21.1132C22.3036 21.155 22.3955 21.2164 22.4729 21.2937C22.5503 21.3711 22.6118 21.463 22.6537 21.5641C22.6956 21.6652 22.7172 21.7736 22.7173 21.883C22.7173 21.9925 22.6958 22.1009 22.6539 22.202C22.6121 22.3032 22.5507 22.3951 22.4733 22.4725C21.7174 23.2284 20.6998 23.6648 19.6311 23.6915C18.5624 23.7182 17.5244 23.3331 16.7317 22.6158L16.58 22.4725L14.2233 20.115C13.4422 19.3336 13.0034 18.274 13.0034 17.1692C13.0034 16.0643 13.4422 15.0039 14.2233 14.2225Z" fill="#0057B1"/>
</g>
<defs>
<filter id="filter0_d_1798_512" x="0" y="0" width="44" height="44" filterUnits="userSpaceOnUse" color-interpolation-filters="sRGB">
<feFlood flood-opacity="0" result="BackgroundImageFix"/>
<feColorMatrix in="SourceAlpha" type="matrix" values="0 0 0 0 0 0 0 0 0 0 0 0 0 0 0 0 0 0 127 0" result="hardAlpha"/>
<feOffset dx="1" dy="1"/>
<feGaussianBlur stdDeviation="2"/>
<feComposite in2="hardAlpha" operator="out"/>
<feColorMatrix type="matrix" values="0 0 0 0 0 0 0 0 0 0 0 0 0 0 0 0 0 0 0.25 0"/>
<feBlend mode="normal" in2="BackgroundImageFix" result="effect1_dropShadow_1798_512"/>
<feBlend mode="normal" in="SourceGraphic" in2="effect1_dropShadow_1798_512" result="shape"/>
</filter>
</defs>
</svg>
