<svg width="85" height="85" viewBox="0 0 85 85" fill="none" xmlns="http://www.w3.org/2000/svg">
<g filter="url(#filter0_d_1798_530)">
<rect x="2" y="2" width="77" height="77" rx="38.5" fill="white"/>
<path d="M49.845 29.055C49.4297 29.055 49.0236 29.1782 48.6783 29.4089C48.333 29.6397 48.0638 29.9676 47.9049 30.3514C47.7459 30.7351 47.7043 31.1573 47.7854 31.5647C47.8664 31.972 48.0664 32.3462 48.3601 32.6399C48.6538 32.9336 49.028 33.1336 49.4353 33.2146C49.8427 33.2957 50.2649 33.2541 50.6486 33.0951C51.0324 32.9362 51.3603 32.667 51.5911 32.3217C51.8218 31.9764 51.945 31.5703 51.945 31.155C51.945 30.598 51.7238 30.0639 51.3299 29.6701C50.9361 29.2762 50.402 29.055 49.845 29.055ZM57.895 33.29C57.861 31.838 57.589 30.4015 57.09 29.0375C56.645 27.8705 55.9525 26.8137 55.06 25.94C54.1934 25.043 53.1342 24.3548 51.9625 23.9275C50.6021 23.4133 49.164 23.1351 47.71 23.105C45.855 23 45.26 23 40.5 23C35.74 23 35.145 23 33.29 23.105C31.836 23.1351 30.3979 23.4133 29.0375 23.9275C27.8679 24.3591 26.8096 25.0467 25.94 25.94C25.043 26.8066 24.3548 27.8658 23.9275 29.0375C23.4133 30.3979 23.1351 31.836 23.105 33.29C23 35.145 23 35.74 23 40.5C23 45.26 23 45.855 23.105 47.71C23.1351 49.164 23.4133 50.6021 23.9275 51.9625C24.3548 53.1342 25.043 54.1934 25.94 55.06C26.8096 55.9533 27.8679 56.6409 29.0375 57.0725C30.3979 57.5867 31.836 57.8649 33.29 57.895C35.145 58 35.74 58 40.5 58C45.26 58 45.855 58 47.71 57.895C49.164 57.8649 50.6021 57.5867 51.9625 57.0725C53.1342 56.6452 54.1934 55.957 55.06 55.06C55.9564 54.1895 56.6496 53.1318 57.09 51.9625C57.589 50.5985 57.861 49.162 57.895 47.71C57.895 45.855 58 45.26 58 40.5C58 35.74 58 35.145 57.895 33.29ZM54.745 47.5C54.7323 48.6108 54.5311 49.7115 54.15 50.755C53.8706 51.5166 53.4218 52.2047 52.8375 52.7675C52.2699 53.3459 51.5831 53.7938 50.825 54.08C49.7815 54.4611 48.6809 54.6623 47.57 54.675C45.82 54.7625 45.1725 54.78 40.57 54.78C35.9675 54.78 35.32 54.78 33.57 54.675C32.4166 54.6966 31.268 54.519 30.175 54.15C29.4501 53.8491 28.7949 53.4024 28.25 52.8375C27.6692 52.2753 27.226 51.5866 26.955 50.825C26.5277 49.7665 26.2908 48.6409 26.255 47.5C26.255 45.75 26.15 45.1025 26.15 40.5C26.15 35.8975 26.15 35.25 26.255 33.5C26.2628 32.3643 26.4702 31.2389 26.8675 30.175C27.1756 29.4363 27.6485 28.7779 28.25 28.25C28.7817 27.6483 29.4388 27.1704 30.175 26.85C31.2417 26.4651 32.366 26.2639 33.5 26.255C35.25 26.255 35.8975 26.15 40.5 26.15C45.1025 26.15 45.75 26.15 47.5 26.255C48.6108 26.2677 49.7115 26.4689 50.755 26.85C51.5503 27.1451 52.264 27.625 52.8375 28.25C53.411 28.7876 53.8591 29.4448 54.15 30.175C54.5389 31.2406 54.7403 32.3656 54.745 33.5C54.8325 35.25 54.85 35.8975 54.85 40.5C54.85 45.1025 54.8325 45.75 54.745 47.5ZM40.5 31.5225C38.7252 31.526 36.9912 32.0554 35.5171 33.044C34.0431 34.0325 32.8952 35.4358 32.2184 37.0766C31.5416 38.7173 31.3663 40.5218 31.7146 42.2621C32.063 44.0024 32.9194 45.6004 34.1756 46.8542C35.4319 48.108 37.0315 48.9613 38.7725 49.3063C40.5135 49.6512 42.3177 49.4724 43.9571 48.7924C45.5965 48.1124 46.9975 46.9618 47.9832 45.4858C48.9689 44.0098 49.495 42.2748 49.495 40.5C49.4973 39.3189 49.2661 38.1491 48.8147 37.0577C48.3632 35.9663 47.7005 34.9749 46.8645 34.1406C46.0286 33.3063 45.0359 32.6454 43.9436 32.1961C42.8514 31.7468 41.6811 31.5179 40.5 31.5225ZM40.5 46.3275C39.3474 46.3275 38.2207 45.9857 37.2624 45.3454C36.3041 44.7051 35.5572 43.7949 35.1161 42.7301C34.675 41.6653 34.5596 40.4935 34.7845 39.3631C35.0093 38.2327 35.5643 37.1943 36.3793 36.3793C37.1943 35.5643 38.2327 35.0093 39.3631 34.7845C40.4935 34.5596 41.6653 34.675 42.7301 35.1161C43.7949 35.5572 44.7051 36.3041 45.3454 37.2624C45.9857 38.2207 46.3275 39.3474 46.3275 40.5C46.3275 41.2653 46.1768 42.0231 45.8839 42.7301C45.591 43.4371 45.1618 44.0795 44.6207 44.6207C44.0795 45.1618 43.4371 45.591 42.7301 45.8839C42.0231 46.1768 41.2653 46.3275 40.5 46.3275Z" fill="black"/>
</g>
<defs>
<filter id="filter0_d_1798_530" x="0" y="0" width="85" height="85" filterUnits="userSpaceOnUse" color-interpolation-filters="sRGB">
<feFlood flood-opacity="0" result="BackgroundImageFix"/>
<feColorMatrix in="SourceAlpha" type="matrix" values="0 0 0 0 0 0 0 0 0 0 0 0 0 0 0 0 0 0 127 0" result="hardAlpha"/>
<feOffset dx="2" dy="2"/>
<feGaussianBlur stdDeviation="2"/>
<feComposite in2="hardAlpha" operator="out"/>
<feColorMatrix type="matrix" values="0 0 0 0 0 0 0 0 0 0 0 0 0 0 0 0 0 0 0.25 0"/>
<feBlend mode="normal" in2="BackgroundImageFix" result="effect1_dropShadow_1798_530"/>
<feBlend mode="normal" in="SourceGraphic" in2="effect1_dropShadow_1798_530" result="shape"/>
</filter>
</defs>
</svg>
