<svg xmlns="http://www.w3.org/2000/svg" width="22" height="22" viewBox="0 0 22 22" fill="none">
  <path d="M9.37934 9.37844C10.2109 8.54696 11.3302 8.0669 12.5058 8.03755C13.6813 8.0082 14.8232 8.43182 15.6952 9.22077L15.8611 9.37844L18.4534 11.9717C19.2977 12.8175 19.7783 13.9596 19.7926 15.1545C19.807 16.3495 19.3541 17.5028 18.5305 18.3687C17.7068 19.2346 16.5775 19.7445 15.3833 19.7898C14.1891 19.835 13.0245 19.4121 12.1376 18.6111L11.9726 18.4534L10.0274 16.5083C9.86302 16.3433 9.76757 16.122 9.76046 15.8892C9.75336 15.6564 9.83512 15.4296 9.98915 15.2549C10.1432 15.0802 10.3579 14.9707 10.5898 14.9487C10.8216 14.9266 11.0532 14.9936 11.2374 15.136L11.3236 15.2121L13.2688 17.1573C13.773 17.6644 14.455 17.9552 15.17 17.968C15.8851 17.9807 16.577 17.7143 17.0989 17.2254C17.6209 16.7365 17.9318 16.0635 17.9658 15.3491C17.9998 14.6347 17.7542 13.9352 17.281 13.3989L17.1573 13.2679L14.5649 10.6746C14.3096 10.4192 14.0064 10.2166 13.6727 10.0784C13.339 9.94013 12.9814 9.86898 12.6202 9.86898C12.259 9.86898 11.9014 9.94013 11.5677 10.0784C11.2341 10.2166 10.9309 10.4192 10.6755 10.6746C10.5026 10.8416 10.2711 10.934 10.0307 10.9319C9.79037 10.9298 9.56046 10.8334 9.39051 10.6634C9.22055 10.4935 9.12414 10.2636 9.12206 10.0232C9.11997 9.78287 9.21236 9.55132 9.37934 9.37844ZM3.54567 3.54477C4.37721 2.71329 5.49652 2.23323 6.67208 2.20388C7.84765 2.17454 8.98952 2.59815 9.86151 3.3871L10.0274 3.54477L11.9717 5.49085C12.1361 5.65581 12.2315 5.87717 12.2386 6.10995C12.2457 6.34274 12.164 6.56951 12.0099 6.74419C11.8559 6.91888 11.6412 7.02838 11.4093 7.05047C11.1775 7.07255 10.9459 7.00556 10.7617 6.8631L10.6755 6.78702L8.73126 4.84277C8.22615 4.34095 7.54609 4.0546 6.83416 4.04396C6.12222 4.03333 5.43391 4.29923 4.91404 4.78574C4.39416 5.27225 4.08325 5.94143 4.0467 6.65251C4.01016 7.36358 4.25083 8.06111 4.71809 8.59835L4.84184 8.73035L7.43509 11.3236C7.95079 11.8391 8.65014 12.1288 9.37934 12.1288C10.1085 12.1288 10.8079 11.8391 11.3236 11.3236C11.4087 11.2384 11.5097 11.1709 11.621 11.1247C11.7322 11.0786 11.8514 11.0549 11.9718 11.0548C12.0922 11.0548 12.2114 11.0785 12.3227 11.1245C12.4339 11.1705 12.535 11.238 12.6202 11.3231C12.7054 11.4083 12.773 11.5093 12.8191 11.6205C12.8652 11.7317 12.8889 11.851 12.889 11.9714C12.889 12.0918 12.8654 12.211 12.8193 12.3223C12.7733 12.4335 12.7058 12.5346 12.6207 12.6198C11.7891 13.4512 10.6698 13.9313 9.49426 13.9607C8.3187 13.99 7.17683 13.5664 6.30484 12.7774L6.13801 12.6198L3.54567 10.0265C2.68643 9.16702 2.20374 8.00144 2.20374 6.7861C2.20374 5.57077 2.68643 4.40427 3.54567 3.54477Z" fill="#0057B1"/>
</svg>