<svg width="51" height="51" viewBox="0 0 51 51" fill="none" xmlns="http://www.w3.org/2000/svg">
<rect width="51" height="51" rx="25.5" fill="#8F00FF"/>
<path d="M20.75 20C20.5511 20 20.3603 20.079 20.2197 20.2197C20.079 20.3603 20 20.5511 20 20.75V28.25C20 28.4489 20.079 28.6397 20.2197 28.7803C20.3603 28.921 20.5511 29 20.75 29C20.9489 29 21.1397 28.921 21.2803 28.7803C21.421 28.6397 21.5 28.4489 21.5 28.25V20.75C21.5 20.5511 21.421 20.3603 21.2803 20.2197C21.1397 20.079 20.9489 20 20.75 20ZM25.5 20C25.3011 20 25.1103 20.079 24.9697 20.2197C24.829 20.3603 24.75 20.5511 24.75 20.75V25.25C24.75 25.4489 24.829 25.6397 24.9697 25.7803C25.1103 25.921 25.3011 26 25.5 26C25.6989 26 25.8897 25.921 26.0303 25.7803C26.171 25.6397 26.25 25.4489 26.25 25.25V20.75C26.25 20.5511 26.171 20.3603 26.0303 20.2197C25.8897 20.079 25.6989 20 25.5 20ZM29.5 20.75C29.5 20.5511 29.579 20.3603 29.7197 20.2197C29.8603 20.079 30.0511 20 30.25 20C30.4489 20 30.6397 20.079 30.7803 20.2197C30.921 20.3603 31 20.5511 31 20.75V30.25C31 30.4489 30.921 30.6397 30.7803 30.7803C30.6397 30.921 30.4489 31 30.25 31C30.0511 31 29.8603 30.921 29.7197 30.7803C29.579 30.6397 29.5 30.4489 29.5 30.25V20.75Z" fill="white"/>
<path d="M16.8375 15H34.1625C35.1768 15 36 15.8232 36 16.8375V34.1625C36 34.6498 35.8064 35.1172 35.4618 35.4618C35.1172 35.8064 34.6498 36 34.1625 36H16.8375C16.3502 36 15.8828 35.8064 15.5382 35.4618C15.1936 35.1172 15 34.6498 15 34.1625V16.8375C15 15.8232 15.8232 15 16.8375 15ZM16.575 16.8375V34.1625C16.575 34.3074 16.6926 34.425 16.8375 34.425H34.1625C34.2321 34.425 34.2989 34.3973 34.3481 34.3481C34.3973 34.2989 34.425 34.2321 34.425 34.1625V16.8375C34.425 16.7679 34.3973 16.7011 34.3481 16.6519C34.2989 16.6027 34.2321 16.575 34.1625 16.575H16.8375C16.7679 16.575 16.7011 16.6027 16.6519 16.6519C16.6027 16.7011 16.575 16.7679 16.575 16.8375Z" fill="white"/>
<rect x="3" y="3" width="45" height="45" rx="22.5" stroke="#8F00FF" stroke-width="2"/>
</svg>
