<svg width="51" height="51" viewBox="0 0 51 51" fill="none" xmlns="http://www.w3.org/2000/svg">
<rect width="51" height="51" rx="25.5" fill="#FE7062"/>
<path d="M25.5 15C22.7152 15 20.0445 16.1062 18.0754 18.0754C16.1062 20.0445 15 22.7152 15 25.5C15 28.2848 16.1062 30.9555 18.0754 32.9246C20.0445 34.8938 22.7152 36 25.5 36C27.6717 36 29.9524 35.3458 31.6011 34.2503C31.6895 34.1916 31.7654 34.116 31.8246 34.028C31.8837 33.9399 31.925 33.841 31.9459 33.737C31.9669 33.633 31.9671 33.5258 31.9467 33.4217C31.9262 33.3176 31.8855 33.2185 31.8268 33.1302C31.768 33.0418 31.6925 32.9659 31.6044 32.9067C31.5163 32.8475 31.4174 32.8063 31.3134 32.7853C31.2094 32.7644 31.1023 32.7641 30.9981 32.7846C30.894 32.805 30.795 32.8458 30.7066 32.9045C29.3365 33.8172 27.3385 34.3846 25.5 34.3846C23.7428 34.3846 22.025 33.8635 20.564 32.8873C19.1029 31.911 17.9641 30.5234 17.2917 28.9C16.6192 27.2765 16.4433 25.4901 16.7861 23.7667C17.1289 22.0433 17.9751 20.4602 19.2176 19.2176C20.4602 17.9751 22.0433 17.1289 23.7667 16.7861C25.4901 16.4433 27.2765 16.6192 28.9 17.2917C30.5234 17.9641 31.911 19.1029 32.8873 20.564C33.8635 22.025 34.3846 23.7428 34.3846 25.5C34.3846 28.1704 33.2862 28.7308 32.3654 28.7308C31.4446 28.7308 30.3462 28.1704 30.3462 25.5V21.4615C30.3462 21.2473 30.2611 21.0419 30.1096 20.8904C29.9581 20.7389 29.7527 20.6538 29.5385 20.6538C29.3242 20.6538 29.1188 20.7389 28.9673 20.8904C28.8159 21.0419 28.7308 21.2473 28.7308 21.4615V21.8916C28.0059 21.2418 27.1022 20.8253 26.1373 20.6964C25.1724 20.5675 24.191 20.7322 23.321 21.1691C22.451 21.6059 21.7328 22.2946 21.2599 23.1455C20.7869 23.9964 20.5812 24.97 20.6695 25.9395C20.7578 26.909 21.1361 27.8294 21.755 28.5808C22.3739 29.3323 23.2047 29.8799 24.1393 30.1524C25.0739 30.4248 26.0689 30.4095 26.9946 30.1084C27.9204 29.8073 28.734 29.2344 29.3295 28.4642C29.9352 29.6758 30.9802 30.3462 32.3654 30.3462C34.6411 30.3462 36 28.5349 36 25.5C35.9971 22.7161 34.8899 20.0471 32.9214 18.0786C30.9529 16.1101 28.2839 15.0029 25.5 15ZM25.5 28.7308C24.861 28.7308 24.2364 28.5413 23.7051 28.1863C23.1738 27.8313 22.7597 27.3267 22.5152 26.7364C22.2706 26.146 22.2066 25.4964 22.3313 24.8697C22.456 24.243 22.7637 23.6673 23.2155 23.2155C23.6673 22.7637 24.243 22.456 24.8697 22.3313C25.4964 22.2066 26.146 22.2706 26.7364 22.5152C27.3267 22.7597 27.8313 23.1738 28.1863 23.7051C28.5413 24.2364 28.7308 24.861 28.7308 25.5C28.7308 26.3569 28.3904 27.1786 27.7845 27.7845C27.1786 28.3904 26.3569 28.7308 25.5 28.7308Z" fill="white"/>
<rect x="3" y="3" width="45" height="45" rx="22.5" stroke="#FE7062" stroke-width="2"/>
</svg>
