<svg width="63" height="63" viewBox="0 0 63 63" fill="none" xmlns="http://www.w3.org/2000/svg">
<rect x="6" y="6" width="51" height="51" rx="25.5" fill="#8F00FF"/>
<path d="M26.25 25.421C26.0301 25.421 25.8193 25.5004 25.6638 25.6417C25.5084 25.7831 25.421 25.9747 25.421 26.1746V33.7105C25.421 33.9104 25.5084 34.102 25.6638 34.2434C25.8193 34.3847 26.0301 34.4641 26.25 34.4641C26.4698 34.4641 26.6807 34.3847 26.8361 34.2434C26.9916 34.102 27.0789 33.9104 27.0789 33.7105V26.1746C27.0789 25.9747 26.9916 25.7831 26.8361 25.6417C26.6807 25.5004 26.4698 25.421 26.25 25.421ZM31.5 25.421C31.2801 25.421 31.0693 25.5004 30.9138 25.6417C30.7584 25.7831 30.671 25.9747 30.671 26.1746V30.6961C30.671 30.896 30.7584 31.0877 30.9138 31.229C31.0693 31.3703 31.2801 31.4497 31.5 31.4497C31.7198 31.4497 31.9307 31.3703 32.0861 31.229C32.2416 31.0877 32.3289 30.896 32.3289 30.6961V26.1746C32.3289 25.9747 32.2416 25.7831 32.0861 25.6417C31.9307 25.5004 31.7198 25.421 31.5 25.421ZM35.921 26.1746C35.921 25.9747 36.0084 25.7831 36.1638 25.6417C36.3193 25.5004 36.5301 25.421 36.75 25.421C36.9698 25.421 37.1807 25.5004 37.3361 25.6417C37.4916 25.7831 37.5789 25.9747 37.5789 26.1746V35.7201C37.5789 35.9199 37.4916 36.1116 37.3361 36.2529C37.1807 36.3943 36.9698 36.4737 36.75 36.4737C36.5301 36.4737 36.3193 36.3943 36.1638 36.2529C36.0084 36.1116 35.921 35.9199 35.921 35.7201V26.1746Z" fill="white"/>
<path d="M22.8375 21H40.1625C41.1768 21 42 21.8232 42 22.8375V40.1625C42 40.6498 41.8064 41.1172 41.4618 41.4618C41.1172 41.8064 40.6498 42 40.1625 42H22.8375C22.3502 42 21.8828 41.8064 21.5382 41.4618C21.1936 41.1172 21 40.6498 21 40.1625V22.8375C21 21.8232 21.8232 21 22.8375 21ZM22.575 22.8375V40.1625C22.575 40.3074 22.6926 40.425 22.8375 40.425H40.1625C40.2321 40.425 40.2989 40.3973 40.3481 40.3481C40.3973 40.2989 40.425 40.2321 40.425 40.1625V22.8375C40.425 22.7679 40.3973 22.7011 40.3481 22.6519C40.2989 22.6027 40.2321 22.575 40.1625 22.575H22.8375C22.7679 22.575 22.7011 22.6027 22.6519 22.6519C22.6027 22.7011 22.575 22.7679 22.575 22.8375Z" fill="white"/>
<rect x="1" y="1" width="61" height="61" rx="30.5" stroke="#8F00FF" stroke-width="2"/>
</svg>
