<svg width="3" height="4" viewBox="0 0 3 4" fill="none" xmlns="http://www.w3.org/2000/svg">
<path id="Vector" d="M1.5 3.5C1.10218 3.5 0.720644 3.34196 0.43934 3.06066C0.158035 2.77936 0 2.39782 0 2C0 1.60218 0.158035 1.22064 0.43934 0.93934C0.720644 0.658035 1.10218 0.5 1.5 0.5C1.89782 0.5 2.27936 0.658035 2.56066 0.93934C2.84196 1.22064 3 1.60218 3 2C3 2.39782 2.84196 2.77936 2.56066 3.06066C2.27936 3.34196 1.89782 3.5 1.5 3.5ZM1.5 3.125C1.79837 3.125 2.08452 3.00647 2.2955 2.7955C2.50647 2.58452 2.625 2.29837 2.625 2C2.625 1.70163 2.50647 1.41548 2.2955 1.2045C2.08452 0.993527 1.79837 0.875 1.5 0.875C1.20163 0.875 0.915483 0.993527 0.704505 1.2045C0.493527 1.41548 0.375 1.70163 0.375 2C0.375 2.29837 0.493527 2.58452 0.704505 2.7955C0.915483 3.00647 1.20163 3.125 1.5 3.125Z" fill="black"/>
</svg>
