<svg width="63" height="63" viewBox="0 0 63 63" fill="none" xmlns="http://www.w3.org/2000/svg">
<rect x="6" y="6" width="51" height="51" rx="25.5" fill="#FE7062"/>
<path d="M31.5 21C28.7152 21 26.0445 22.1062 24.0754 24.0754C22.1062 26.0445 21 28.7152 21 31.5C21 34.2848 22.1062 36.9555 24.0754 38.9246C26.0445 40.8938 28.7152 42 31.5 42C33.6717 42 35.9524 41.3458 37.6011 40.2503C37.6895 40.1916 37.7654 40.116 37.8246 40.028C37.8837 39.9399 37.925 39.841 37.9459 39.737C37.9669 39.633 37.9671 39.5258 37.9467 39.4217C37.9262 39.3176 37.8855 39.2185 37.8268 39.1302C37.768 39.0418 37.6925 38.9659 37.6044 38.9067C37.5163 38.8475 37.4174 38.8063 37.3134 38.7853C37.2094 38.7644 37.1023 38.7641 36.9981 38.7846C36.894 38.805 36.795 38.8458 36.7066 38.9045C35.3365 39.8172 33.3385 40.3846 31.5 40.3846C29.7428 40.3846 28.025 39.8635 26.564 38.8873C25.1029 37.911 23.9641 36.5234 23.2917 34.9C22.6192 33.2765 22.4433 31.4901 22.7861 29.7667C23.1289 28.0433 23.9751 26.4602 25.2176 25.2176C26.4602 23.9751 28.0433 23.1289 29.7667 22.7861C31.4901 22.4433 33.2765 22.6192 34.9 23.2917C36.5234 23.9641 37.911 25.1029 38.8873 26.564C39.8635 28.025 40.3846 29.7428 40.3846 31.5C40.3846 34.1704 39.2862 34.7308 38.3654 34.7308C37.4446 34.7308 36.3462 34.1704 36.3462 31.5V27.4615C36.3462 27.2473 36.2611 27.0419 36.1096 26.8904C35.9581 26.7389 35.7527 26.6538 35.5385 26.6538C35.3242 26.6538 35.1188 26.7389 34.9673 26.8904C34.8159 27.0419 34.7308 27.2473 34.7308 27.4615V27.8916C34.0059 27.2418 33.1022 26.8253 32.1373 26.6964C31.1724 26.5675 30.191 26.7322 29.321 27.1691C28.451 27.6059 27.7328 28.2946 27.2599 29.1455C26.7869 29.9964 26.5812 30.97 26.6695 31.9395C26.7578 32.909 27.1361 33.8294 27.755 34.5808C28.3739 35.3323 29.2047 35.8799 30.1393 36.1524C31.0739 36.4248 32.0689 36.4095 32.9946 36.1084C33.9204 35.8073 34.734 35.2344 35.3295 34.4642C35.9352 35.6758 36.9802 36.3462 38.3654 36.3462C40.6411 36.3462 42 34.5349 42 31.5C41.9971 28.7161 40.8899 26.0471 38.9214 24.0786C36.9529 22.1101 34.2839 21.0029 31.5 21ZM31.5 34.7308C30.861 34.7308 30.2364 34.5413 29.7051 34.1863C29.1738 33.8313 28.7597 33.3267 28.5152 32.7364C28.2706 32.146 28.2066 31.4964 28.3313 30.8697C28.456 30.243 28.7637 29.6673 29.2155 29.2155C29.6673 28.7637 30.243 28.456 30.8697 28.3313C31.4964 28.2066 32.146 28.2706 32.7364 28.5152C33.3267 28.7597 33.8313 29.1738 34.1863 29.7051C34.5413 30.2364 34.7308 30.861 34.7308 31.5C34.7308 32.3569 34.3904 33.1786 33.7845 33.7845C33.1786 34.3904 32.3569 34.7308 31.5 34.7308Z" fill="white"/>
<rect x="1" y="1" width="61" height="61" rx="30.5" stroke="#FE7062" stroke-width="2"/>
</svg>
