<svg width="51" height="51" viewBox="0 0 51 51" fill="none" xmlns="http://www.w3.org/2000/svg">
<rect width="51" height="51" rx="25.5" fill="#0FB50B"/>
<path fill-rule="evenodd" clip-rule="evenodd" d="M31.4391 14C32.0664 13.9999 32.6721 14.2273 33.1424 14.6396C33.6127 15.0518 33.9151 15.6205 33.9929 16.2387L34.1936 17.8333H35.053C35.4891 17.8332 35.9197 17.9292 36.3139 18.1145C36.708 18.2997 37.0559 18.5695 37.3323 18.9045C37.6088 19.2394 37.8069 19.6311 37.9124 20.0513C38.018 20.4716 38.0282 20.9098 37.9426 21.3344L37.684 22.6186C37.4911 23.5755 37.0299 24.4587 36.3533 25.1664C35.6768 25.874 34.8126 26.3773 33.8604 26.6181C33.207 27.9976 32.218 29.1937 30.9826 30.0985C29.7473 31.0034 28.3045 31.5884 26.7845 31.8007V34.4444H30.6441C30.9853 34.4444 31.3125 34.5791 31.5538 34.8187C31.7951 35.0583 31.9306 35.3833 31.9306 35.7222C31.9306 36.0611 31.7951 36.3861 31.5538 36.6257C31.3125 36.8654 30.9853 37 30.6441 37H20.3531C20.0119 37 19.6847 36.8654 19.4434 36.6257C19.2021 36.3861 19.0666 36.0611 19.0666 35.7222C19.0666 35.3833 19.2021 35.0583 19.4434 34.8187C19.6847 34.5791 20.0119 34.4444 20.3531 34.4444H24.2127V31.8007C22.6932 31.588 21.2509 31.0028 20.016 30.098C18.7811 29.1932 17.7925 27.9972 17.1393 26.6181C16.1872 26.3773 15.323 25.874 14.6464 25.1664C13.9699 24.4587 13.5086 23.5755 13.3158 22.6186L13.0572 21.3332C12.9717 20.9087 12.9822 20.4707 13.0877 20.0508C13.1933 19.6308 13.3913 19.2393 13.6676 18.9045C13.9439 18.5698 14.2915 18.3 14.6854 18.1148C15.0793 17.9296 15.5096 17.8334 15.9454 17.8333H16.8049L17.0055 16.2387C17.0833 15.6205 17.3858 15.0518 17.8561 14.6396C18.3264 14.2273 18.9321 13.9999 19.5593 14H31.4391ZM31.4391 16.5556H19.5593L18.8865 21.8941C18.7693 22.8254 18.8528 23.7708 19.1315 24.6675C19.4103 25.5643 19.8778 26.3919 20.5032 27.0955C21.1286 27.7991 21.8974 28.3625 22.7588 28.7484C23.6201 29.1344 24.5543 29.334 25.4992 29.334C26.4442 29.334 27.3783 29.1344 28.2397 28.7484C29.101 28.3625 29.8699 27.7991 30.4953 27.0955C31.1206 26.3919 31.5882 25.5643 31.8669 24.6675C32.1457 23.7708 32.2292 22.8254 32.112 21.8941L31.4379 16.5556H31.4391ZM35.0543 20.3889H34.514L34.6645 21.5772C34.7288 22.096 34.7507 22.6097 34.7288 23.1144C34.8961 22.8806 35.0247 22.6186 35.107 22.3349L35.1611 22.1177L35.4184 20.8323C35.4377 20.738 35.4194 20.64 35.3673 20.559C35.3152 20.4779 35.2334 20.4201 35.1392 20.3978L35.0543 20.3889ZM16.4819 20.3889H15.9442C15.8889 20.3888 15.8343 20.4008 15.7842 20.4243C15.7342 20.4477 15.6901 20.4818 15.655 20.5243C15.6199 20.5667 15.5948 20.6163 15.5814 20.6696C15.5679 20.7229 15.5666 20.7784 15.5775 20.8323L15.8361 22.1164C15.9107 22.4857 16.0599 22.8231 16.2684 23.1131C16.2465 22.6097 16.2684 22.096 16.3327 21.5772L16.4819 20.3889Z" fill="white"/>
<rect x="3" y="3" width="45" height="45" rx="22.5" stroke="#0FB50B" stroke-width="2"/>
</svg>
