<svg width="24" height="24" viewBox="0 0 24 24" fill="none" xmlns="http://www.w3.org/2000/svg">
<g id="Frame 322">
<g id="Group">
<path id="Vector" d="M8.41052 16.5076C8.41052 16.7955 8.29618 17.0715 8.09265 17.275C7.88912 17.4786 7.61308 17.5929 7.32525 17.5929C7.03742 17.5929 6.76138 17.4786 6.55786 17.275C6.35433 17.0715 6.23999 16.7955 6.23999 16.5076C6.23999 16.2198 6.35433 15.9438 6.55786 15.7402C6.76138 15.5367 7.03742 15.4224 7.32525 15.4224C7.61308 15.4224 7.88912 15.5367 8.09265 15.7402C8.29618 15.9438 8.41052 16.2198 8.41052 16.5076ZM12.7516 16.5076C12.7516 16.7955 12.6372 17.0715 12.4337 17.275C12.2302 17.4786 11.9541 17.5929 11.6663 17.5929C11.3785 17.5929 11.1024 17.4786 10.8989 17.275C10.6954 17.0715 10.581 16.7955 10.581 16.5076C10.581 16.2198 10.6954 15.9438 10.8989 15.7402C11.1024 15.5367 11.3785 15.4224 11.6663 15.4224C11.9541 15.4224 12.2302 15.5367 12.4337 15.7402C12.6372 15.9438 12.7516 16.2198 12.7516 16.5076ZM16.0074 17.5929C16.2952 17.5929 16.5712 17.4786 16.7748 17.275C16.9783 17.0715 17.0926 16.7955 17.0926 16.5076C17.0926 16.2198 16.9783 15.9438 16.7748 15.7402C16.5712 15.5367 16.2952 15.4224 16.0074 15.4224C15.7195 15.4224 15.4435 15.5367 15.24 15.7402C15.0364 15.9438 14.9221 16.2198 14.9221 16.5076C14.9221 16.7955 15.0364 17.0715 15.24 17.275C15.4435 17.4786 15.7195 17.5929 16.0074 17.5929Z" fill="#0057B1"/>
<path id="Vector_2" fill-rule="evenodd" clip-rule="evenodd" d="M4.34105 7.82553V9.23963C4.0947 9.25699 3.86354 9.2787 3.64432 9.30908C2.66758 9.43932 1.84495 9.72148 1.19162 10.3737C0.538291 11.0271 0.258293 11.8497 0.126976 12.8264C-1.61717e-08 13.7673 0 14.9644 0 16.4479V16.5673C0 18.0509 -1.61717e-08 19.2479 0.126976 20.1889C0.257207 21.1656 0.539376 21.9882 1.19162 22.6415C1.84495 23.2949 2.66758 23.5749 3.64432 23.7073C4.58524 23.8332 5.78228 23.8332 7.26584 23.8332H16.0673C17.5509 23.8332 18.7479 23.8332 19.6889 23.7073C20.6656 23.5749 21.4882 23.2949 22.1415 22.6415C22.7949 21.9882 23.0749 21.1656 23.2073 20.1889C23.3332 19.2479 23.3332 18.0509 23.3332 16.5673V16.4479C23.3332 14.9644 23.3332 13.7673 23.2073 12.8264C23.0749 11.8497 22.7949 11.0271 22.1415 10.3737C21.4882 9.7204 20.6656 9.4404 19.6889 9.30908C19.4574 9.2786 19.225 9.25544 18.9921 9.23963V7.82553C18.9921 5.88268 18.2203 4.0194 16.8465 2.6456C15.4727 1.27179 13.6094 0.5 11.6666 0.5C9.72373 0.5 7.86046 1.27179 6.48665 2.6456C5.11285 4.0194 4.34105 5.88268 4.34105 7.82553ZM11.6666 2.1279C10.1555 2.1279 8.70626 2.72818 7.63775 3.79669C6.56923 4.86521 5.96895 6.31442 5.96895 7.82553V9.18536C6.37375 9.18211 6.80677 9.18211 7.26584 9.18211H16.0673C16.5264 9.18211 16.9594 9.18211 17.3642 9.18536V7.82553C17.3642 4.67826 14.8138 2.1279 11.6666 2.1279ZM3.86137 10.9218C3.06478 11.0292 2.6437 11.2257 2.34308 11.5252C2.04247 11.8258 1.84712 12.2469 1.73968 13.0446C1.63007 13.8639 1.6279 14.9503 1.6279 16.5076C1.6279 18.065 1.63007 19.1513 1.73968 19.9718C1.84712 20.7684 2.04355 21.1895 2.34308 21.4901C2.6437 21.7907 3.06478 21.986 3.86245 22.0935C4.68074 22.2031 5.76818 22.2053 7.32553 22.2053H16.0076C17.565 22.2053 18.6513 22.2031 19.4718 22.0935C20.2684 21.986 20.6895 21.7896 20.9901 21.4901C21.2907 21.1895 21.486 20.7684 21.5935 19.9707C21.7031 19.1513 21.7053 18.065 21.7053 16.5076C21.7053 14.9503 21.7031 13.8629 21.5935 13.0435C21.486 12.2469 21.2896 11.8258 20.9901 11.5252C20.6895 11.2246 20.2684 11.0292 19.4707 10.9218C18.6513 10.8122 17.565 10.81 16.0076 10.81H7.32553C5.76818 10.81 4.68074 10.8122 3.86137 10.9218Z" fill="#0057B1"/>
</g>
</g>
</svg>
