<svg width="33" height="33" viewBox="0 0 33 33" fill="none" xmlns="http://www.w3.org/2000/svg">
<path d="M0 0H25C29.4183 0 33 3.58172 33 8V25C33 29.4183 29.4183 33 25 33H0V0Z" fill="#0057B1"/>
<path d="M20.5 14C22.0225 14.0083 22.8471 14.0755 23.3847 14.6072C24 15.2159 24 16.195 24 18.1531V18.8455C24 20.8044 24 21.7834 23.3847 22.3921C22.7701 23 21.7796 23 19.8 23H14.2C12.2204 23 11.2299 23 10.6153 22.3921C10 21.7827 10 20.8044 10 18.8455V18.1531C10 16.195 10 15.2159 10.6153 14.6072C11.1529 14.0755 11.9775 14.0083 13.5 14" stroke="white" stroke-linecap="round"/>
<path d="M17 9V18M17 18L15 15.5769M17 18L19 15.5769" stroke="white" stroke-linecap="round" stroke-linejoin="round"/>
</svg>
