<svg width="29" height="29" viewBox="0 0 29 29" fill="none" xmlns="http://www.w3.org/2000/svg">
<g id="radix-icons:cross-2">
<path id="Vector" fill-rule="evenodd" clip-rule="evenodd" d="M18.8392 19.9279C18.9106 19.9995 18.9955 20.0562 19.0889 20.095C19.1823 20.1337 19.2824 20.1537 19.3835 20.1538C19.4846 20.1538 19.5847 20.134 19.6782 20.0954C19.7716 20.0567 19.8565 20.0001 19.928 19.9286C19.9996 19.8572 20.0563 19.7723 20.0951 19.6789C20.1338 19.5855 20.1538 19.4854 20.1539 19.3843C20.1539 19.2832 20.1341 19.1831 20.0955 19.0896C20.0568 18.9962 20.0002 18.9113 19.9287 18.8397L15.2855 14.1965L19.9287 9.55468C20.0732 9.4102 20.1544 9.21424 20.1544 9.00991C20.1544 8.80559 20.0732 8.60963 19.9287 8.46515C19.7842 8.32067 19.5883 8.2395 19.3839 8.2395C19.1796 8.2395 18.9837 8.32067 18.8392 8.46515L14.1973 13.1084L9.55545 8.46515C9.48391 8.39361 9.39898 8.33686 9.30551 8.29815C9.21204 8.25943 9.11186 8.2395 9.01069 8.2395C8.90952 8.2395 8.80934 8.25943 8.71586 8.29815C8.62239 8.33686 8.53746 8.39361 8.46592 8.46515C8.32144 8.60963 8.24027 8.80559 8.24027 9.00991C8.24027 9.11109 8.2602 9.21127 8.29892 9.30474C8.33764 9.39821 8.39439 9.48314 8.46592 9.55468L13.1091 14.1965L8.46592 18.8397C8.32162 18.9842 8.24062 19.1801 8.24075 19.3843C8.24087 19.5885 8.32211 19.7843 8.46659 19.9286C8.61107 20.0729 8.80696 20.1539 9.01116 20.1538C9.21536 20.1537 9.41115 20.0724 9.55545 19.9279L14.1973 15.2847L18.8392 19.9279Z" fill="black"/>
</g>
</svg>
