<svg xmlns="http://www.w3.org/2000/svg" width="5" height="10" viewBox="0 0 5 10" fill="none">
  <path fill-rule="evenodd" clip-rule="evenodd" d="M0.193933 8.75861L3.81761 5L0.193933 1.24139C0.146346 1.19203 0.105474 1.12857 0.0736502 1.05463C0.0418262 0.980699 0.0196737 0.897736 0.00845739 0.810481C-0.00275892 0.723226 -0.00281942 0.633388 0.00827953 0.546097C0.0193785 0.458806 0.0414196 0.375771 0.0731441 0.301732C0.137215 0.152205 0.236839 0.0484023 0.350101 0.0131585C0.406182 -0.00429248 0.463924 -0.00438662 0.520029 0.0128818C0.576134 0.0301502 0.629503 0.0644429 0.67709 0.113802L4.78489 4.37457C4.85106 4.44322 4.90532 4.53622 4.94284 4.64532C4.98037 4.75443 5 4.87626 5 5C5 5.12374 4.98037 5.24557 4.94284 5.35468C4.90532 5.46378 4.85106 5.55678 4.78489 5.62543L0.67709 9.8862C0.629503 9.93556 0.576134 9.96985 0.520029 9.98712C0.463924 10.0044 0.406182 10.0043 0.350101 9.98684C0.294019 9.96939 0.240696 9.93492 0.193176 9.88541C0.145655 9.8359 0.104869 9.77231 0.0731441 9.69827C0.0414196 9.62423 0.0193785 9.54119 0.00827953 9.4539C-0.00281942 9.36661 -0.00275892 9.27677 0.00845739 9.18952C0.0196737 9.10226 0.0418262 9.0193 0.0736502 8.94537C0.105474 8.87143 0.146346 8.80797 0.193933 8.75861Z" fill="black"/>
</svg>