<svg xmlns="http://www.w3.org/2000/svg" width="21" height="21" viewBox="0 0 21 21" fill="none">
  <path fill-rule="evenodd" clip-rule="evenodd" d="M2.90769 0H2.82692C2.457 0 2.13877 1.20346e-08 1.85769 0.0662257C1.42257 0.170192 1.02472 0.392583 0.708234 0.708759C0.391749 1.02494 0.168981 1.42255 0.0646153 1.85755C-6.01778e-08 2.1386 0 2.4552 0 2.82671V6.86486C0 7.23475 1.20356e-08 7.55296 0.0662308 7.83401C0.170205 8.26911 0.392613 8.66692 0.708814 8.98338C1.02501 9.29984 1.42266 9.52259 1.85769 9.62695C2.13877 9.69156 2.45538 9.69156 2.82692 9.69156H6.86538C7.23531 9.69156 7.55354 9.69156 7.83462 9.62534C8.26974 9.52137 8.66759 9.29898 8.98407 8.9828C9.30056 8.66663 9.52333 8.26901 9.62769 7.83401C9.69231 7.55296 9.69231 7.23637 9.69231 6.86486V2.82671C9.69231 2.45681 9.69231 2.1386 9.62608 1.85755C9.5221 1.42246 9.29969 1.02464 8.98349 0.708179C8.66729 0.391718 8.26965 0.168968 7.83462 0.0646104C7.55354 -6.01731e-08 7.23692 0 6.86538 0H2.90769ZM2.23408 1.63787C2.30354 1.62172 2.41177 1.61526 2.90769 1.61526H6.78462C7.28215 1.61526 7.38877 1.62011 7.45823 1.63787C7.60334 1.67257 7.736 1.74678 7.8415 1.85228C7.947 1.95777 8.02122 2.09042 8.05592 2.23552C8.07208 2.30336 8.07692 2.40997 8.07692 2.90747V6.78409C8.07692 7.28159 8.07208 7.3882 8.05431 7.45766C8.01961 7.60276 7.94539 7.73541 7.83989 7.8409C7.73439 7.94639 7.60173 8.02061 7.45662 8.0553C7.39038 8.06984 7.28377 8.0763 6.78462 8.0763H2.90769C2.41015 8.0763 2.30354 8.07146 2.23408 8.05369C2.08897 8.01899 1.9563 7.94478 1.8508 7.83929C1.7453 7.73379 1.67109 7.60114 1.63638 7.45604C1.62185 7.38982 1.61538 7.28321 1.61538 6.78409V2.90747C1.61538 2.40997 1.62023 2.30336 1.638 2.2339C1.6727 2.08881 1.74692 1.95615 1.85242 1.85066C1.95792 1.74517 2.09058 1.67096 2.23569 1.63626L2.23408 1.63787ZM14.2154 0H14.1346C13.7647 0 13.4465 1.20346e-08 13.1654 0.0662257C12.7303 0.170192 12.3324 0.392583 12.0159 0.708759C11.6994 1.02494 11.4767 1.42255 11.3723 1.85755C11.3077 2.1386 11.3077 2.4552 11.3077 2.82671V6.86486C11.3077 7.23475 11.3077 7.55296 11.3739 7.83401C11.4779 8.26911 11.7003 8.66692 12.0165 8.98338C12.3327 9.29984 12.7304 9.52259 13.1654 9.62695C13.4465 9.69156 13.7631 9.69156 14.1346 9.69156H18.1731C18.543 9.69156 18.8612 9.69156 19.1423 9.62534C19.5774 9.52137 19.9753 9.29898 20.2918 8.9828C20.6082 8.66663 20.831 8.26901 20.9354 7.83401C21 7.55296 21 7.23637 21 6.86486V2.82671C21 2.45681 21 2.1386 20.9338 1.85755C20.8298 1.42246 20.6074 1.02464 20.2912 0.708179C19.975 0.391718 19.5773 0.168968 19.1423 0.0646104C18.8612 -6.01731e-08 18.5446 0 18.1731 0H14.2154ZM13.5418 1.63787C13.6112 1.62172 13.7195 1.61526 14.2154 1.61526H18.0923C18.5898 1.61526 18.6965 1.62011 18.7659 1.63787C18.911 1.67257 19.0437 1.74678 19.1492 1.85228C19.2547 1.95777 19.3289 2.09042 19.3636 2.23552C19.3798 2.30336 19.3846 2.40997 19.3846 2.90747V6.78409C19.3846 7.28159 19.3782 7.3882 19.362 7.45766C19.3273 7.60276 19.2531 7.73541 19.1476 7.8409C19.0421 7.94639 18.9094 8.02061 18.7643 8.0553C18.6965 8.07146 18.5898 8.0763 18.0923 8.0763H14.2154C13.7178 8.0763 13.6112 8.07146 13.5418 8.05369C13.3967 8.01899 13.264 7.94478 13.1585 7.83929C13.053 7.73379 12.9788 7.60114 12.9441 7.45604C12.9295 7.38982 12.9231 7.28321 12.9231 6.78409V2.90747C12.9231 2.40997 12.9279 2.30336 12.9457 2.2339C12.9804 2.08881 13.0546 1.95615 13.1601 1.85066C13.2656 1.74517 13.3983 1.67096 13.5434 1.63626L13.5418 1.63787ZM2.82692 11.3068H6.86538C7.23531 11.3068 7.55354 11.3068 7.83462 11.373C8.26974 11.477 8.66759 11.6994 8.98407 12.0156C9.30056 12.3318 9.52333 12.7294 9.62769 13.1644C9.69231 13.4454 9.69231 13.762 9.69231 14.1335V18.1717C9.69231 18.5416 9.69231 18.8598 9.62608 19.1408C9.5221 19.5759 9.29969 19.9737 8.98349 20.2902C8.66729 20.6067 8.26965 20.8294 7.83462 20.9338C7.55354 20.9984 7.23692 20.9984 6.86538 20.9984H2.82692C2.457 20.9984 2.13877 20.9984 1.85769 20.9322C1.42257 20.8282 1.02472 20.6058 0.708234 20.2896C0.391749 19.9734 0.168981 19.5758 0.0646153 19.1408C-6.01778e-08 18.8598 0 18.5432 0 18.1717V14.1335C0 13.7636 1.20356e-08 13.4454 0.0662308 13.1644C0.170205 12.7293 0.392613 12.3315 0.708814 12.015C1.02501 11.6985 1.42266 11.4758 1.85769 11.3714C2.13877 11.3068 2.45538 11.3068 2.82692 11.3068ZM2.90769 12.9221C2.41015 12.9221 2.30354 12.9269 2.23408 12.9447C2.08897 12.9794 1.9563 13.0536 1.8508 13.1591C1.7453 13.2646 1.67109 13.3972 1.63638 13.5423C1.62185 13.6086 1.61538 13.7152 1.61538 14.2143V18.0909C1.61538 18.5884 1.62023 18.695 1.638 18.7645C1.6727 18.9096 1.74692 19.0422 1.85242 19.1477C1.95792 19.2532 2.09058 19.3274 2.23569 19.3621C2.30354 19.3783 2.41015 19.3831 2.90769 19.3831H6.78462C7.28215 19.3831 7.38877 19.3767 7.45823 19.3605C7.60334 19.3258 7.736 19.2516 7.8415 19.1461C7.947 19.0406 8.02122 18.908 8.05592 18.7629C8.07208 18.695 8.07692 18.5884 8.07692 18.0909V14.2143C8.07692 13.7168 8.07208 13.6102 8.05431 13.5407C8.01961 13.3956 7.94539 13.263 7.83989 13.1575C7.73439 13.052 7.60173 12.9778 7.45662 12.9431C7.39038 12.9285 7.28377 12.9221 6.78462 12.9221H2.90769ZM14.2154 11.3068H14.1346C13.7647 11.3068 13.4465 11.3068 13.1654 11.373C12.7303 11.477 12.3324 11.6994 12.0159 12.0156C11.6994 12.3318 11.4767 12.7294 11.3723 13.1644C11.3077 13.4454 11.3077 13.762 11.3077 14.1335V18.1717C11.3077 18.5416 11.3077 18.8598 11.3739 19.1408C11.4779 19.5759 11.7003 19.9737 12.0165 20.2902C12.3327 20.6067 12.7304 20.8294 13.1654 20.9338C13.4465 21 13.7647 21 14.1346 21H18.1731C18.543 21 18.8612 21 19.1423 20.9338C19.5771 20.8295 19.9746 20.607 20.2908 20.2909C20.607 19.9747 20.8295 19.5772 20.9338 19.1425C21 18.8614 21 18.5432 21 18.1733V14.1335C21 13.7636 21 13.4454 20.9338 13.1644C20.8298 12.7293 20.6074 12.3315 20.2912 12.015C19.975 11.6985 19.5773 11.4758 19.1423 11.3714C18.8612 11.3068 18.5446 11.3068 18.1731 11.3068H14.2154ZM13.5418 12.9447C13.6112 12.9285 13.7195 12.9221 14.2154 12.9221H18.0923C18.5898 12.9221 18.6965 12.9269 18.7659 12.9447C18.911 12.9794 19.0437 13.0536 19.1492 13.1591C19.2547 13.2646 19.3289 13.3972 19.3636 13.5423C19.3798 13.6102 19.3846 13.7168 19.3846 14.2143V18.0909C19.3846 18.5884 19.3782 18.695 19.362 18.7645C19.3273 18.9096 19.2531 19.0422 19.1476 19.1477C19.0421 19.2532 18.9094 19.3274 18.7643 19.3621C18.6965 19.3783 18.5898 19.3831 18.0923 19.3831H14.2154C13.7178 19.3831 13.6112 19.3767 13.5418 19.3605C13.3967 19.3258 13.264 19.2516 13.1585 19.1461C13.053 19.0406 12.9788 18.908 12.9441 18.7629C12.9295 18.6966 12.9231 18.59 12.9231 18.0909V14.2143C12.9231 13.7168 12.9279 13.6102 12.9457 13.5407C12.9804 13.3956 13.0546 13.263 13.1601 13.1575C13.2656 13.052 13.3983 12.9778 13.5434 12.9431L13.5418 12.9447Z" fill="black"/>
</svg>