<svg xmlns="http://www.w3.org/2000/svg" width="23" height="23" viewBox="0 0 23 23" fill="none">
  <path d="M10.4232 7.59523C10.2042 7.7458 10.0286 7.9513 9.91407 8.19114C9.8169 8.36954 9.65428 8.50326 9.46047 8.56414C9.26665 8.62502 9.05678 8.60829 8.87505 8.5175C8.69332 8.4267 8.55393 8.26892 8.48623 8.07738C8.41853 7.88584 8.42781 7.67551 8.51212 7.49068C8.72121 7.07041 9.04843 6.62714 9.55443 6.2905C10.0646 5.94864 10.7097 5.75 11.5 5.75C12.1879 5.75 12.9313 5.95386 13.5219 6.39714C13.8512 6.63786 14.1183 6.95376 14.3009 7.31854C14.4834 7.68332 14.5762 8.08643 14.5716 8.49432C14.5716 9.57427 14.0353 10.2925 13.4979 10.81C13.2993 11.0013 13.0808 11.1843 12.8926 11.3411L12.7389 11.4697C12.5776 11.6016 12.4257 11.7444 12.2841 11.8973V13.3295C12.2841 13.5375 12.2015 13.7369 12.0545 13.884C11.9074 14.031 11.708 14.1136 11.5 14.1136C11.2921 14.1136 11.0926 14.031 10.9456 13.884C10.7985 13.7369 10.7159 13.5375 10.7159 13.3295V11.7896C10.7159 11.5418 10.786 11.2627 10.9742 11.0201C11.2042 10.7274 11.4823 10.4796 11.7248 10.2737L11.9161 10.1137L11.9172 10.1127C12.097 9.96318 12.2559 9.83041 12.4085 9.68195C12.7933 9.31082 13.0034 8.97523 13.0034 8.49432C13.008 8.32992 12.9719 8.16693 12.8982 8.01989C12.8245 7.87286 12.7155 7.74636 12.581 7.65168C12.3008 7.44155 11.9015 7.31818 11.5 7.31818C10.9836 7.31818 10.649 7.44468 10.4232 7.59523ZM12.5455 16.7273C12.5455 17.0045 12.4353 17.2705 12.2393 17.4665C12.0432 17.6626 11.7773 17.7727 11.5 17.7727C11.2228 17.7727 10.9568 17.6626 10.7608 17.4665C10.5647 17.2705 10.4546 17.0045 10.4546 16.7273C10.4546 16.45 10.5647 16.1841 10.7608 15.988C10.9568 15.792 11.2228 15.6818 11.5 15.6818C11.7773 15.6818 12.0432 15.792 12.2393 15.988C12.4353 16.1841 12.5455 16.45 12.5455 16.7273Z" fill="black"/>
  <path d="M11.5 0C17.8511 0 23 5.14886 23 11.5C23 17.8511 17.8511 23 11.5 23C5.14886 23 0 17.8511 0 11.5C0 5.14886 5.14886 0 11.5 0ZM1.56818 11.5C1.56818 14.1341 2.61457 16.6603 4.47714 18.5229C6.33972 20.3854 8.86592 21.4318 11.5 21.4318C14.1341 21.4318 16.6603 20.3854 18.5229 18.5229C20.3854 16.6603 21.4318 14.1341 21.4318 11.5C21.4318 8.86592 20.3854 6.33972 18.5229 4.47714C16.6603 2.61457 14.1341 1.56818 11.5 1.56818C8.86592 1.56818 6.33972 2.61457 4.47714 4.47714C2.61457 6.33972 1.56818 8.86592 1.56818 11.5Z" fill="black"/>
</svg>