<svg xmlns="http://www.w3.org/2000/svg" width="19" height="19" viewBox="0 0 19 19" fill="none">
  <path d="M1.73659 0H9.55124C10.0118 0 10.4535 0.200178 10.7792 0.556497C11.1049 0.912816 11.2878 1.39609 11.2878 1.9V3.8H9.55124V1.9H1.73659V17.1H9.55124V15.2H11.2878V17.1C11.2878 17.6039 11.1049 18.0872 10.7792 18.4435C10.4535 18.7998 10.0118 19 9.55124 19H1.73659C1.27602 19 0.834309 18.7998 0.508635 18.4435C0.182962 18.0872 0 17.6039 0 17.1V1.9C0 1.39609 0.182962 0.912816 0.508635 0.556497C0.834309 0.200178 1.27602 0 1.73659 0Z" fill="black"/>
  <path d="M13.4534 12.731L14.6323 14L18.813 9.5L14.6323 5L13.4534 6.269L15.6106 8.6H7.52515V10.4H15.6106L13.4534 12.731Z" fill="black"/>
</svg>