<svg xmlns="http://www.w3.org/2000/svg" width="19" height="23" viewBox="0 0 19 23" fill="none">
   <path d="M16.15 11.96C16.9059 11.96 17.6308 12.2508 18.1653 12.7684C18.6997 13.286 19 13.988 19 14.72V15.64C19 19.2666 15.466 23 9.5 23C3.534 23 0 19.2666 0 15.64V14.72C0 13.988 0.300267 13.286 0.834746 12.7684C1.36922 12.2508 2.09413 11.96 2.85 11.96H16.15ZM16.15 13.8H2.85C2.59804 13.8 2.35641 13.8969 2.17825 14.0695C2.00009 14.242 1.9 14.476 1.9 14.72V15.64C1.9 18.2859 4.6208 21.16 9.5 21.16C14.3792 21.16 17.1 18.2859 17.1 15.64V14.72C17.1 14.476 16.9999 14.242 16.8218 14.0695C16.6436 13.8969 16.402 13.8 16.15 13.8ZM9.5 0C10.8858 0 12.2148 0.533106 13.1946 1.48204C14.1745 2.43097 14.725 3.718 14.725 5.06C14.725 6.402 14.1745 7.68903 13.1946 8.63796C12.2148 9.58689 10.8858 10.12 9.5 10.12C8.11424 10.12 6.78524 9.58689 5.80537 8.63796C4.82549 7.68903 4.275 6.402 4.275 5.06C4.275 3.718 4.82549 2.43097 5.80537 1.48204C6.78524 0.533106 8.11424 0 9.5 0ZM9.5 1.84C8.61816 1.84 7.77243 2.17925 7.14887 2.78312C6.52531 3.38698 6.175 4.206 6.175 5.06C6.175 5.914 6.52531 6.73302 7.14887 7.33688C7.77243 7.94075 8.61816 8.28 9.5 8.28C10.3818 8.28 11.2276 7.94075 11.8511 7.33688C12.4747 6.73302 12.825 5.914 12.825 5.06C12.825 4.206 12.4747 3.38698 11.8511 2.78312C11.2276 2.17925 10.3818 1.84 9.5 1.84Z" fill="black"/>
</svg>