<svg xmlns="http://www.w3.org/2000/svg" width="23" height="16" viewBox="0 0 23 16" fill="none">
  <path d="M21.9048 9.08771H5.84152C5.55105 9.08771 5.27248 8.97273 5.06708 8.76805C4.86169 8.56337 4.7463 8.28577 4.7463 7.99632C4.7463 7.70686 4.86169 7.42926 5.06708 7.22458C5.27248 7.01991 5.55105 6.90492 5.84152 6.90492H21.9048C22.1952 6.90492 22.4738 7.01991 22.6792 7.22458C22.8846 7.42926 23 7.70686 23 7.99632C23 8.28577 22.8846 8.56337 22.6792 8.76805C22.4738 8.97273 22.1952 9.08771 21.9048 9.08771ZM21.9048 2.53934H5.84152C5.55105 2.53934 5.27248 2.42435 5.06708 2.21967C4.86169 2.015 4.7463 1.7374 4.7463 1.44794C4.7463 1.15848 4.86169 0.880882 5.06708 0.676205C5.27248 0.471529 5.55105 0.356543 5.84152 0.356543H21.9048C22.1952 0.356543 22.4738 0.471529 22.6792 0.676205C22.8846 0.880882 23 1.15848 23 1.44794C23 1.7374 22.8846 2.015 22.6792 2.21967C22.4738 2.42435 22.1952 2.53934 21.9048 2.53934ZM21.9048 15.6361H5.84152C5.55105 15.6361 5.27248 15.5211 5.06708 15.3164C4.86169 15.1118 4.7463 14.8342 4.7463 14.5447C4.7463 14.2552 4.86169 13.9776 5.06708 13.773C5.27248 13.5683 5.55105 13.4533 5.84152 13.4533H21.9048C22.1952 13.4533 22.4738 13.5683 22.6792 13.773C22.8846 13.9776 23 14.2552 23 14.5447C23 14.8342 22.8846 15.1118 22.6792 15.3164C22.4738 15.5211 22.1952 15.6361 21.9048 15.6361ZM1.46064 2.90313C1.27078 2.90545 1.08229 2.87085 0.905723 2.80127C0.731225 2.7169 0.569097 2.60919 0.423826 2.48113C0.288483 2.34515 0.181407 2.1839 0.108736 2.0066C0.0360647 1.8293 -0.000771323 1.63945 0.000339806 1.44794C0.00571879 1.06265 0.15698 0.693615 0.423826 0.41475C0.560902 0.279995 0.725167 0.175828 0.905723 0.109159C1.26125 -0.0363864 1.66002 -0.0363864 2.01555 0.109159C2.1948 0.178418 2.35857 0.282268 2.49745 0.41475C2.76429 0.693615 2.91555 1.06265 2.92093 1.44794C2.92204 1.63945 2.88521 1.8293 2.81254 2.0066C2.73986 2.1839 2.63279 2.34515 2.49745 2.48113C2.35217 2.60919 2.19005 2.7169 2.01555 2.80127C1.83898 2.87085 1.65049 2.90545 1.46064 2.90313ZM1.46064 9.45151C1.26981 9.44921 1.08128 9.40966 0.905723 9.3351C0.728757 9.2614 0.565768 9.15804 0.423826 9.02951C0.288483 8.89353 0.181407 8.73227 0.108736 8.55498C0.0360647 8.37768 -0.000771323 8.18783 0.000339806 7.99632C0.00571879 7.61103 0.15698 7.24199 0.423826 6.96313C0.565768 6.83459 0.728757 6.73123 0.905723 6.65754C1.17007 6.5354 1.46504 6.49485 1.75269 6.54112L2.01555 6.62843L2.2784 6.7594C2.3549 6.81313 2.42805 6.87144 2.49745 6.93403C2.77121 7.22019 2.923 7.60096 2.92093 7.99632C2.92093 8.38226 2.76708 8.75239 2.49322 9.0253C2.21936 9.2982 1.84793 9.45151 1.46064 9.45151ZM1.46064 15.9999C1.27078 16.0022 1.08229 15.9676 0.905723 15.898C0.731225 15.8137 0.569097 15.7059 0.423826 15.5779C0.294836 15.4364 0.191115 15.274 0.117163 15.0977C0.0399061 14.9235 0 14.7351 0 14.5447C0 14.3543 0.0399061 14.1659 0.117163 13.9917C0.191115 13.8154 0.294836 13.653 0.423826 13.5115C0.629178 13.3096 0.889948 13.1728 1.17323 13.1184C1.45651 13.064 1.74961 13.0945 2.01555 13.2059C2.1948 13.2752 2.35857 13.379 2.49745 13.5115C2.62644 13.653 2.73016 13.8154 2.80411 13.9917C2.88137 14.1659 2.92127 14.3543 2.92127 14.5447C2.92127 14.7351 2.88137 14.9235 2.80411 15.0977C2.73016 15.274 2.62644 15.4364 2.49745 15.5779C2.361 15.7128 2.19917 15.8195 2.02125 15.8919C1.84333 15.9643 1.65282 16.001 1.46064 15.9999Z" fill="black"/>
</svg>