<svg xmlns="http://www.w3.org/2000/svg" width="23" height="25" viewBox="0 0 23 25" fill="none">
  <path d="M11.5719 15.5769C13.4297 15.5769 14.9358 14.0708 14.9358 12.213C14.9358 10.3552 13.4297 8.84912 11.5719 8.84912C9.71408 8.84912 8.20801 10.3552 8.20801 12.213C8.20801 14.0708 9.71408 15.5769 11.5719 15.5769Z" stroke="black" stroke-width="1.5"/>
  <path d="M2.2213 10.688C2.75168 11.0199 3.09255 11.5873 3.09255 12.213C3.09255 12.8387 2.75168 13.4061 2.2213 13.738C1.86137 13.9656 1.62813 14.1461 1.4633 14.3614C1.284 14.5951 1.15249 14.8619 1.07631 15.1464C1.00012 15.431 0.980736 15.7278 1.01927 16.0198C1.07758 16.4616 1.33884 16.9146 1.86024 17.8195C2.38389 18.7244 2.64515 19.1763 2.99836 19.4487C3.23208 19.628 3.49884 19.7595 3.78339 19.8357C4.06794 19.9119 4.36472 19.9313 4.65676 19.8928C4.92588 19.8569 5.19835 19.747 5.57511 19.5474C5.84473 19.3999 6.14745 19.3233 6.45481 19.3248C6.76216 19.3264 7.06408 19.4061 7.33218 19.5564C7.87377 19.8703 8.19558 20.4478 8.21801 21.0735C8.23371 21.4996 8.27408 21.7911 8.37836 22.0412C8.49106 22.3135 8.65632 22.5608 8.86469 22.7692C9.07306 22.9776 9.32045 23.1428 9.59272 23.2555C10.0042 23.426 10.5268 23.426 11.5718 23.426C12.6169 23.426 13.1394 23.426 13.5509 23.2555C13.8232 23.1428 14.0706 22.9776 14.2789 22.7692C14.4873 22.5608 14.6526 22.3135 14.7653 22.0412C14.8684 21.7911 14.9099 21.4996 14.9256 21.0735C14.948 20.4478 15.2699 19.8692 15.8114 19.5564C16.0796 19.4061 16.3815 19.3264 16.6888 19.3248C16.9962 19.3233 17.2989 19.3999 17.5685 19.5474C17.9453 19.747 18.2189 19.8569 18.488 19.8928C19.0774 19.9703 19.6735 19.8106 20.1453 19.4487C20.4985 19.1774 20.7597 18.7244 21.2823 17.8195C21.5155 17.4158 21.696 17.103 21.8306 16.8406M20.9223 13.7391C20.6598 13.5795 20.4421 13.3559 20.2897 13.0891C20.1373 12.8224 20.0552 12.5213 20.0511 12.2141C20.0511 11.5873 20.392 11.0199 20.9223 10.6869C21.2823 10.4604 21.5144 10.2799 21.6803 10.0646C21.8596 9.83086 21.9911 9.56411 22.0673 9.27956C22.1435 8.995 22.1629 8.69823 22.1244 8.40618C22.0661 7.96439 21.8048 7.51138 21.2834 6.6065C20.7597 5.70161 20.4985 5.24972 20.1453 4.97725C19.9115 4.79794 19.6448 4.66644 19.3602 4.59025C19.0757 4.51406 18.7789 4.49468 18.4869 4.53321C18.2178 4.5691 17.9453 4.67898 17.5674 4.87857C17.2979 5.02593 16.9954 5.10241 16.6883 5.10084C16.3811 5.09927 16.0794 5.01971 15.8114 4.8696C15.5473 4.71252 15.3275 4.49087 15.1725 4.2255C15.0176 3.96012 14.9326 3.65971 14.9256 3.35249C14.9099 2.92639 14.8696 2.63485 14.7653 2.3848C14.6526 2.11253 14.4873 1.86514 14.2789 1.65677C14.0706 1.4484 13.8232 1.28314 13.5509 1.17044C13.1394 1 12.6169 1 11.5718 1C10.5268 1 10.0042 1 9.59272 1.17044C9.32045 1.28314 9.07306 1.4484 8.86469 1.65677C8.65632 1.86514 8.49106 2.11253 8.37836 2.3848C8.2752 2.63485 8.23371 2.92639 8.21801 3.35249C8.21102 3.65971 8.12606 3.96012 7.97111 4.2255C7.81616 4.49087 7.5963 4.71252 7.33218 4.8696C7.06408 5.01991 6.76216 5.09958 6.45481 5.10115C6.14745 5.10272 5.84473 5.02613 5.57511 4.87857C5.19835 4.67898 4.92475 4.5691 4.65564 4.53321C4.0662 4.4557 3.47009 4.61541 2.99836 4.97725C2.64627 5.24972 2.38389 5.70161 1.86137 6.6065C1.62813 7.01016 1.44761 7.32301 1.31305 7.58539" stroke="black" stroke-width="1.5" stroke-linecap="round"/>
</svg>