<svg xmlns="http://www.w3.org/2000/svg" width="24" height="19" viewBox="0 0 24 19" fill="none">
  <path d="M1.70833 0.958496H10.25C10.7031 0.958496 11.1376 1.13848 11.458 1.45886C11.7783 1.77923 11.9583 2.21375 11.9583 2.66683C11.9583 3.11991 11.7783 3.55443 11.458 3.8748C11.1376 4.19518 10.7031 4.37516 10.25 4.37516H1.70833C1.25526 4.37516 0.820734 4.19518 0.500359 3.8748C0.179985 3.55443 0 3.11991 0 2.66683C0 2.21375 0.179985 1.77923 0.500359 1.45886C0.820734 1.13848 1.25526 0.958496 1.70833 0.958496ZM13.6667 14.6252H22.2083C22.6614 14.6252 23.0959 14.8051 23.4163 15.1255C23.7367 15.4459 23.9167 15.8804 23.9167 16.3335C23.9167 16.7866 23.7367 17.2211 23.4163 17.5415C23.0959 17.8618 22.6614 18.0418 22.2083 18.0418H13.6667C13.2136 18.0418 12.7791 17.8618 12.4587 17.5415C12.1383 17.2211 11.9583 16.7866 11.9583 16.3335C11.9583 15.8804 12.1383 15.4459 12.4587 15.1255C12.7791 14.8051 13.2136 14.6252 13.6667 14.6252ZM1.70833 7.79183H22.2083C22.6614 7.79183 23.0959 7.97181 23.4163 8.29219C23.7367 8.61256 23.9167 9.04708 23.9167 9.50016C23.9167 9.95324 23.7367 10.3878 23.4163 10.7081C23.0959 11.0285 22.6614 11.2085 22.2083 11.2085H1.70833C1.25526 11.2085 0.820734 11.0285 0.500359 10.7081C0.179985 10.3878 0 9.95324 0 9.50016C0 9.04708 0.179985 8.61256 0.500359 8.29219C0.820734 7.97181 1.25526 7.79183 1.70833 7.79183Z" fill="#0057B1"/>
</svg>