<svg width="30" height="30" viewBox="0 0 30 30" fill="none" xmlns="http://www.w3.org/2000/svg">
<path d="M12.5874 13.6699C12.8394 13.5176 12.9624 13.2422 12.9624 12.8555C12.9624 12.4219 12.7983 12.1406 12.4644 12C12.1772 11.9062 11.814 11.8535 11.3687 11.8535H9.35303V13.8984H11.603C12.0073 13.9043 12.3296 13.8281 12.5874 13.6699Z" fill="black"/>
<path d="M20.1606 14.3262C19.8735 14.0801 19.5161 13.957 19.0942 13.957C18.6372 13.957 18.2798 14.0859 18.022 14.3496C17.77 14.6133 17.6118 14.9648 17.5415 15.4102H20.6294C20.606 14.9355 20.4419 14.5781 20.1606 14.3262Z" fill="black"/>
<path d="M27.6562 0H2.34375C1.04883 0 0 1.04883 0 2.34375V27.6562C0 28.9512 1.04883 30 2.34375 30H27.6562C28.9512 30 30 28.9512 30 27.6562V2.34375C30 1.04883 28.9512 0 27.6562 0ZM17.0859 10.6816H21.0586V11.8359H17.0859V10.6816ZM14.6895 18.1992C14.5137 18.4863 14.2969 18.7324 14.0332 18.9258C13.7402 19.1543 13.3887 19.3066 12.9844 19.3945C12.5801 19.4766 12.1465 19.5176 11.6719 19.5176H7.5V10.248H11.9824C13.1133 10.2656 13.916 10.5938 14.3848 11.2383C14.666 11.6309 14.8066 12.1055 14.8066 12.6562C14.8066 13.2188 14.666 13.6758 14.3789 14.0215C14.2207 14.2148 13.9805 14.3906 13.6699 14.5488C14.1445 14.7246 14.502 14.9941 14.7422 15.3691C14.9824 15.7441 15.1055 16.1953 15.1055 16.7285C15.1055 17.2676 14.9648 17.7598 14.6895 18.1992ZM22.5 16.5938H17.5078C17.5371 17.2793 17.7715 17.7656 18.2227 18.041C18.498 18.2109 18.8262 18.2988 19.2129 18.2988C19.6172 18.2988 19.9512 18.1934 20.209 17.9824C20.3496 17.8711 20.4727 17.7129 20.5781 17.5078H22.4062C22.3594 17.9121 22.1367 18.3281 21.7441 18.75C21.1289 19.418 20.2734 19.752 19.166 19.752C18.252 19.752 17.4492 19.4707 16.752 18.9082C16.0547 18.3457 15.7031 17.4316 15.7031 16.166C15.7031 14.9766 16.0195 14.0684 16.6465 13.4355C17.2793 12.8027 18.0938 12.4863 19.0957 12.4863C19.6934 12.4863 20.2324 12.5918 20.707 12.8086C21.1875 13.0195 21.5801 13.3594 21.8906 13.8223C22.1719 14.2266 22.3535 14.7012 22.4355 15.2402C22.4883 15.5508 22.5059 16.002 22.5 16.5938Z" fill="black"/>
<path d="M12.5566 15.5923C12.334 15.4927 12.0293 15.4399 11.6309 15.4341H9.3457V17.9067H11.6016C12.0059 17.9067 12.3164 17.854 12.5391 17.7427C12.9492 17.5376 13.1484 17.1567 13.1484 16.5884C13.1484 16.1079 12.9492 15.7739 12.5566 15.5923Z" fill="black"/>
</svg>
