<svg width="30" height="30" viewBox="0 0 30 30" fill="none" xmlns="http://www.w3.org/2000/svg">
<path d="M27.0019 0H2.99813C1.34812 0.0046875 0.0046875 1.34812 0 2.99813V27.0019C0.0046875 28.6519 1.34812 29.9953 2.99813 30H27.0019C28.6519 29.9953 29.9953 28.6519 30 27.0019V2.99813C29.9953 1.34812 28.6519 0.0046875 27.0019 0ZM8.80875 18.0806C10.1316 18.6862 11.6944 18.1003 12.3 16.7766H14.3756C13.0819 22.0744 5.28375 21.1369 5.28375 15.6825C5.28375 10.2234 13.0819 9.28594 14.3756 14.5884H12.3C11.5378 12.9141 9.33656 12.5128 8.03719 13.8169C6.73312 15.1153 7.13344 17.3184 8.80875 18.0806ZM22.9884 19.1353C22.5928 19.4775 22.1484 19.7409 21.66 19.9266C20.2584 20.4684 18.6769 20.2931 17.4262 19.4484V19.9266H15.5363V6.71344H17.4113V11.85C18.0806 11.3963 18.8569 11.1272 19.6622 11.0634H19.9988C24.2663 11.0541 26.2294 16.3659 22.9875 19.1344L22.9884 19.1353ZM22.71 15.6788C22.7391 17.1534 21.5531 18.3694 20.0784 18.3694C18.6038 18.3694 17.4169 17.1534 17.4516 15.6788C17.5247 12.2513 22.6322 12.2513 22.71 15.6788Z" fill="black"/>
</svg>
