<svg width="30" height="30" viewBox="0 0 30 30" fill="none" xmlns="http://www.w3.org/2000/svg">
<path d="M30 25.8333C30 28.135 28.135 30 25.8333 30H4.16667C1.865 30 0 28.135 0 25.8333V4.16667C0 1.865 1.865 0 4.16667 0H25.8333C28.135 0 30 1.865 30 4.16667V25.8333Z" fill="black"/>
<path d="M7.48856 20.3892H4.06689V9.45166H7.48773C9.05273 9.45166 10.3211 10.72 10.3211 12.285V17.5558C10.3219 19.1208 9.05356 20.3892 7.48856 20.3892ZM7.40273 18.3517C7.95523 18.3517 8.40273 17.9042 8.40273 17.3517V12.4908C8.40273 11.9383 7.95523 11.4908 7.40273 11.4908H6.15023V18.3517H7.40273Z" fill="#ECEFF1"/>
<path d="M16.9906 11.3473V9.43066H12.7856C12.0956 9.43066 11.5356 9.99066 11.5356 10.6807V19.1257C11.5356 19.8157 12.0956 20.3757 12.7856 20.3757H16.9906V18.459H13.4515V15.8582H15.6306V13.9415H13.4515V11.3473H16.9906Z" fill="#ECEFF1"/>
<path d="M26.4429 9.43359L23.9929 19.1586C23.5679 20.8419 21.1846 20.8419 20.7596 19.1586L18.3013 9.43359H20.4513L22.3763 17.0503L24.2929 9.43359H26.4429Z" fill="#ECEFF1"/>
</svg>
