<svg width="32" height="32" viewBox="0 0 32 32" fill="none" xmlns="http://www.w3.org/2000/svg">
<path d="M16 31C24.2843 31 31 24.2843 31 16C31 7.71573 24.2843 1 16 1C7.71573 1 1 7.71573 1 16C1 24.2843 7.71573 31 16 31Z" stroke="#020202" stroke-width="1.69778" stroke-miterlimit="10"/>
<path d="M10.4575 2.05713C13.0994 5.03746 15.3465 8.34562 17.1432 11.9C17.9944 13.5496 18.7481 15.2478 19.4004 16.9857C20.946 21.0263 21.9778 25.245 22.4718 29.5428" stroke="#020202" stroke-width="1.69778" stroke-miterlimit="10"/>
<path d="M26.957 5.74268C24.1916 8.50865 20.8365 10.6135 17.1427 11.8998C12.0256 13.8834 6.55497 14.7927 1.07129 14.5712" stroke="#020202" stroke-width="1.69778" stroke-miterlimit="10"/>
<path d="M30.886 17.7286C27.1938 16.5544 23.2707 16.2994 19.4575 16.9858C16.5813 17.5306 13.8746 18.7477 11.5583 20.5377C9.24193 22.3277 7.38156 24.6399 6.12891 27.2858" stroke="#020202" stroke-width="1.69778" stroke-miterlimit="10"/>
</svg>
