<svg width="30" height="30" viewBox="0 0 30 30" fill="none" xmlns="http://www.w3.org/2000/svg">
<path fill-rule="evenodd" clip-rule="evenodd" d="M2.06149 10.0234C-0.687162 12.772 -0.687162 17.228 2.06149 19.9764L10.0235 27.9387C12.7721 30.6871 17.2281 30.6871 19.9764 27.9387L27.9387 19.9764C30.6871 17.2277 30.6871 12.7718 27.9387 10.0234L19.9764 2.0613C17.2278 -0.687101 12.7719 -0.687101 10.0235 2.0613L2.06149 10.0234ZM18.4834 18.4835C20.4074 16.5595 20.4074 13.4403 18.4834 11.5165C16.5596 9.59239 13.4404 9.59239 11.5166 11.5165C9.59252 13.4405 9.59252 16.5595 11.5166 18.4835C13.4406 20.4074 16.5596 20.4074 18.4836 18.4835H18.4834Z" fill="#2962FF"/>
</svg>
