<svg width="30" height="30" viewBox="0 0 30 30" fill="none" xmlns="http://www.w3.org/2000/svg">
<path d="M23.5714 0H6.42857C2.87817 0 0 2.87817 0 6.42857V23.5714C0 27.1218 2.87817 30 6.42857 30H23.5714C27.1218 30 30 27.1218 30 23.5714V6.42857C30 2.87817 27.1218 0 23.5714 0Z" fill="url(#paint0_radial_3431_128)"/>
<path d="M23.5714 0H6.42857C2.87817 0 0 2.87817 0 6.42857V23.5714C0 27.1218 2.87817 30 6.42857 30H23.5714C27.1218 30 30 27.1218 30 23.5714V6.42857C30 2.87817 27.1218 0 23.5714 0Z" fill="url(#paint1_radial_3431_128)"/>
<path d="M23.5714 0H6.42857C2.87817 0 0 2.87817 0 6.42857V23.5714C0 27.1218 2.87817 30 6.42857 30H23.5714C27.1218 30 30 27.1218 30 23.5714V6.42857C30 2.87817 27.1218 0 23.5714 0Z" fill="url(#paint2_radial_3431_128)"/>
<path d="M22.5009 9.10714C22.5009 9.99471 21.7813 10.7143 20.8938 10.7143C20.0062 10.7143 19.2866 9.99471 19.2866 9.10714C19.2866 8.21954 20.0062 7.5 20.8938 7.5C21.7813 7.5 22.5009 8.21954 22.5009 9.10714Z" fill="white"/>
<path fill-rule="evenodd" clip-rule="evenodd" d="M14.9995 20.3569C17.9581 20.3569 20.3566 17.9584 20.3566 14.9997C20.3566 12.0411 17.9581 9.64258 14.9995 9.64258C12.0408 9.64258 9.64233 12.0411 9.64233 14.9997C9.64233 17.9584 12.0408 20.3569 14.9995 20.3569ZM14.9995 18.214C16.7747 18.214 18.2138 16.775 18.2138 14.9997C18.2138 13.2245 16.7747 11.7854 14.9995 11.7854C13.2242 11.7854 11.7852 13.2245 11.7852 14.9997C11.7852 16.775 13.2242 18.214 14.9995 18.214Z" fill="white"/>
<path fill-rule="evenodd" clip-rule="evenodd" d="M4.28662 14.5718C4.28662 10.9715 4.28662 9.17131 4.98729 7.7962C5.60362 6.58658 6.58706 5.60313 7.79669 4.9868C9.1718 4.28613 10.972 4.28613 14.5723 4.28613H15.4295C19.0298 4.28613 20.83 4.28613 22.2051 4.9868C23.4147 5.60313 24.3982 6.58658 25.0145 7.7962C25.7152 9.17131 25.7152 10.9715 25.7152 14.5718V15.429C25.7152 19.0293 25.7152 20.8295 25.0145 22.2046C24.3982 23.4142 23.4147 24.3977 22.2051 25.014C20.83 25.7147 19.0298 25.7147 15.4295 25.7147H14.5723C10.972 25.7147 9.1718 25.7147 7.79669 25.014C6.58706 24.3977 5.60362 23.4142 4.98729 22.2046C4.28662 20.8295 4.28662 19.0293 4.28662 15.429V14.5718ZM14.5723 6.42899H15.4295C17.265 6.42899 18.5127 6.43066 19.4772 6.50945C20.4168 6.58621 20.8972 6.72534 21.2323 6.8961C22.0387 7.30699 22.6943 7.96262 23.1052 8.76899C23.276 9.10413 23.4152 9.58456 23.4919 10.5241C23.5706 11.4886 23.5723 12.7363 23.5723 14.5718V15.429C23.5723 17.2646 23.5706 18.5122 23.4919 19.4767C23.4152 20.4163 23.276 20.8967 23.1052 21.2318C22.6943 22.0382 22.0387 22.6938 21.2323 23.1047C20.8972 23.2755 20.4168 23.4147 19.4772 23.4914C18.5127 23.5701 17.265 23.5718 15.4295 23.5718H14.5723C12.7368 23.5718 11.4891 23.5701 10.5246 23.4914C9.58505 23.4147 9.10462 23.2755 8.76948 23.1047C7.96311 22.6938 7.30748 22.0382 6.89659 21.2318C6.72582 20.8967 6.5867 20.4163 6.50994 19.4767C6.43115 18.5122 6.42948 17.2646 6.42948 15.429V14.5718C6.42948 12.7363 6.43115 11.4886 6.50994 10.5241C6.5867 9.58456 6.72582 9.10413 6.89659 8.76899C7.30748 7.96262 7.96311 7.30699 8.76948 6.8961C9.10462 6.72534 9.58505 6.58621 10.5246 6.50945C11.4891 6.43066 12.7368 6.42899 14.5723 6.42899Z" fill="white"/>
<defs>
<radialGradient id="paint0_radial_3431_128" cx="0" cy="0" r="1" gradientUnits="userSpaceOnUse" gradientTransform="translate(10.7143 22.5) rotate(-55.3758) scale(27.3424)">
<stop stop-color="#B13589"/>
<stop offset="0.79309" stop-color="#C62F94"/>
<stop offset="1" stop-color="#8A3AC8"/>
</radialGradient>
<radialGradient id="paint1_radial_3431_128" cx="0" cy="0" r="1" gradientUnits="userSpaceOnUse" gradientTransform="translate(9.64286 31.0714) rotate(-65.1363) scale(24.2081)">
<stop stop-color="#E0E8B7"/>
<stop offset="0.444662" stop-color="#FB8A2E"/>
<stop offset="0.71474" stop-color="#E2425C"/>
<stop offset="1" stop-color="#E2425C" stop-opacity="0"/>
</radialGradient>
<radialGradient id="paint2_radial_3431_128" cx="0" cy="0" r="1" gradientUnits="userSpaceOnUse" gradientTransform="translate(-1.60714 1.07143) rotate(-8.1301) scale(41.6688 8.91253)">
<stop offset="0.156701" stop-color="#406ADC"/>
<stop offset="0.467799" stop-color="#6A45BE"/>
<stop offset="1" stop-color="#6A45BE" stop-opacity="0"/>
</radialGradient>
</defs>
</svg>
