<svg width="30" height="30" viewBox="0 0 30 30" fill="none" xmlns="http://www.w3.org/2000/svg">
<path d="M25.5625 25.5624H21.1175V18.6C21.1175 16.94 21.0875 14.8025 18.805 14.8025C16.49 14.8025 16.135 16.6125 16.135 18.4775V25.5624H11.69V11.245H15.9575V13.2025H16.0175C16.8875 11.7175 18.5075 10.8275 20.2275 10.89C24.7325 10.89 25.565 13.8525 25.565 17.71L25.5625 25.5599V25.5624ZM6.675 9.2875C5.99219 9.28422 5.33823 9.01169 4.85517 8.5291C4.37211 8.0465 4.09894 7.39282 4.095 6.71001C4.095 5.29502 5.26 4.13002 6.675 4.13002C8.09 4.13002 9.2525 5.29502 9.255 6.71001C9.255 8.12501 8.09 9.2875 6.675 9.2875ZM8.8975 25.5624H4.4475V11.245H8.8975V25.5624ZM27.775 3.71579e-05H2.2125C1.63288 -0.0033294 1.07534 0.222185 0.661058 0.627575C0.246772 1.03297 0.00921166 1.58547 0 2.16503V27.8349C0.00921166 28.4145 0.246772 28.967 0.661058 29.3724C1.07534 29.7778 1.63288 30.0033 2.2125 29.9999H27.7775C28.3585 30.0046 28.9178 29.7799 29.334 29.3745C29.7501 28.9691 29.9895 28.4158 30 27.8349V2.16253C29.9895 1.5821 29.75 1.02935 29.3337 0.624757C28.9173 0.220158 28.358 -0.00349562 27.7775 0.00253697L27.775 3.71579e-05Z" fill="#0A66C2"/>
</svg>
