<svg width="30" height="20" viewBox="0 0 30 20" fill="none" xmlns="http://www.w3.org/2000/svg">
<path d="M16.364 10.0002C16.364 15.5232 12.7008 20.0004 8.182 20.0004C3.6632 20.0004 0 15.5232 0 10.0002C0 4.47725 3.6632 0 8.182 0C12.7008 0 16.364 4.47725 16.364 10.0002Z" fill="#0F0F0F"/>
<path d="M29.9996 10.0005C29.9996 14.6029 29.389 18.334 28.6359 18.334C27.8827 18.334 27.2722 14.6029 27.2722 10.0005C27.2722 5.39804 27.8827 1.66699 28.6359 1.66699C29.389 1.66699 29.9996 5.39804 29.9996 10.0005Z" fill="#0F0F0F"/>
<path d="M21.8198 20.0004C24.0792 20.0004 25.9108 15.5232 25.9108 10.0002C25.9108 4.47725 24.0792 0 21.8198 0C19.5603 0 17.7288 4.47725 17.7288 10.0002C17.7288 15.5232 19.5603 20.0004 21.8198 20.0004Z" fill="#0F0F0F"/>
</svg>
