<svg width="27" height="30" viewBox="0 0 27 30" fill="none" xmlns="http://www.w3.org/2000/svg">
<path d="M25.8217 4.52341V1.00031C25.5734 1.00031 25.2518 1 24.5488 1L2.27317 1.00031C1.57015 1.00031 1.25963 1.00031 1.00024 1.00031V4.52341C1.16666 4.52341 1.57015 4.52379 2.27317 4.52379L24.5488 4.52341C25.2518 4.52341 25.6347 4.52341 25.8217 4.52341Z" stroke="black" stroke-width="0.444444" stroke-linecap="round" stroke-linejoin="round"/>
<path d="M25.8215 10.8815V7.3584H2.27293C1.56991 7.3584 1.21347 7.3584 1 7.3584V10.8815C1.20348 10.8815 1.56991 10.8815 2.27293 10.8815H25.8215Z" stroke="black" stroke-width="0.444444" stroke-linecap="round" stroke-linejoin="round"/>
<path d="M25.9993 29.4527V13.9326C25.9993 13.807 25.2515 13.8498 24.5485 13.8498H2.27293C1.56991 13.8498 1 13.8071 1 13.9326V29.2264C1.2164 29.1016 12.7976 22.9115 13.4341 22.6146C13.8306 22.8432 23.9279 28.258 26 29.4521L25.9993 29.4527Z" stroke="black" stroke-width="0.444444" stroke-linecap="round" stroke-linejoin="round"/>
</svg>
