<svg width="25" height="29" viewBox="0 0 25 29" fill="none" xmlns="http://www.w3.org/2000/svg">
<path d="M13.1302 0.0239852C14.7008 9.11387e-08 16.2598 0.0124723 17.8179 0C17.8697 1.94855 18.6602 3.70235 19.918 5.00138L19.9161 4.99946C21.2698 6.21887 23.0313 7.00942 24.9731 7.14374L25 7.14566V11.9772C23.1656 11.9312 21.4406 11.5081 19.8854 10.7808L19.9641 10.8135C19.2119 10.4518 18.5758 10.0805 17.9714 9.66602L18.0213 9.69864C18.0098 13.1995 18.0328 16.7004 17.9973 20.1888C17.8985 21.9666 17.3075 23.588 16.3596 24.9417L16.3788 24.9119C14.7938 27.1819 12.2265 28.6719 9.307 28.7601H9.29357C9.17556 28.7659 9.03644 28.7687 8.89637 28.7687C7.2366 28.7687 5.68524 28.3063 4.36318 27.5033L4.40156 27.5254C1.99536 26.0776 0.335592 23.6004 0.0285824 20.7193L0.0247448 20.68C0.00075966 20.0804 -0.0107533 19.4807 0.0132319 18.8936C0.483341 14.3086 4.3248 10.7617 8.99423 10.7617C9.51903 10.7617 10.0333 10.8068 10.5331 10.8921L10.4794 10.8845C10.5034 12.6584 10.4314 14.4333 10.4314 16.2072C10.0256 16.0605 9.5574 15.9751 9.06907 15.9751C7.27689 15.9751 5.7524 17.1206 5.18827 18.7199L5.17963 18.7487C5.05203 19.1584 4.97816 19.6294 4.97816 20.1168C4.97816 20.3145 4.99063 20.5102 5.01366 20.7021L5.01174 20.679C5.33026 22.642 7.01306 24.1233 9.0422 24.1233C9.10073 24.1233 9.15829 24.1223 9.21585 24.1195H9.20722C10.6108 24.0773 11.8293 23.3222 12.5181 22.2064L12.5277 22.1891C12.7839 21.8322 12.9595 21.4005 13.018 20.9314L13.0189 20.9179C13.1389 18.7717 13.0909 16.638 13.1024 14.4918C13.1139 9.66026 13.0909 4.8402 13.1264 0.021107L13.1302 0.0239852Z" fill="black"/>
</svg>
