<svg width="30" height="25" viewBox="0 0 30 25" fill="none" xmlns="http://www.w3.org/2000/svg">
<path fill-rule="evenodd" clip-rule="evenodd" d="M11.9025 17.1102L11.9016 7.12334L20.0072 12.134L11.9025 17.1102ZM29.7 5.39277C29.7 5.39277 29.4066 2.94354 28.5075 1.86498C27.3666 0.448757 26.0878 0.442079 25.5019 0.359883C21.3037 -5.21541e-06 15.0066 0 15.0066 0H14.9934C14.9934 0 8.69625 -5.21541e-06 4.49813 0.359883C3.91125 0.442079 2.63344 0.448757 1.49157 1.86498C0.592503 2.94354 0.299997 5.39277 0.299997 5.39277C0.299997 5.39277 0 8.26965 0 11.1454V13.8424C0 16.7193 0.299997 19.595 0.299997 19.595C0.299997 19.595 0.592503 22.0443 1.49157 23.1228C2.63344 24.539 4.1325 24.4946 4.8 24.6423C7.2 24.9156 15 25 15 25C15 25 21.3037 24.9889 25.5019 24.629C26.0878 24.5457 27.3666 24.539 28.5075 23.1228C29.4066 22.0443 29.7 19.595 29.7 19.595C29.7 19.595 30 16.7193 30 13.8424V11.1454C30 8.26965 29.7 5.39277 29.7 5.39277Z" fill="#CE1312"/>
</svg>
