<svg xmlns="http://www.w3.org/2000/svg" width="18" height="18" viewBox="0 0 18 18" fill="none">
  <path fill-rule="evenodd" clip-rule="evenodd" d="M15.5761 9.69049C15.6667 9.69055 15.7565 9.67275 15.8403 9.63811C15.9241 9.60347 16.0002 9.55267 16.0643 9.48862C16.1285 9.42456 16.1793 9.34849 16.2141 9.26477C16.2488 9.18104 16.2667 9.09129 16.2668 9.00064C16.2669 8.90999 16.2491 8.82022 16.2144 8.73645C16.1798 8.65268 16.129 8.57655 16.0649 8.51242C16.0009 8.44828 15.9248 8.39739 15.8411 8.36264C15.7573 8.3279 15.6676 8.30999 15.5769 8.30994L9.68985 8.30994L9.6907 2.4237C9.6907 2.24051 9.61793 2.06483 9.4884 1.9353C9.35887 1.80577 9.18319 1.733 9 1.733C8.81681 1.733 8.64113 1.80577 8.5116 1.9353C8.38207 2.06483 8.3093 2.24051 8.3093 2.4237L8.31015 8.30994L2.42391 8.30909C2.3332 8.30909 2.24339 8.32696 2.15959 8.36167C2.07579 8.39638 1.99965 8.44725 1.93551 8.51139C1.87137 8.57553 1.82049 8.65167 1.78578 8.73547C1.75107 8.81927 1.73321 8.90909 1.73321 8.99979C1.73321 9.18298 1.80598 9.35866 1.93551 9.48819C1.99964 9.55233 2.07579 9.60321 2.15959 9.63792C2.24339 9.67263 2.3332 9.69049 2.42391 9.69049L8.31015 9.68965L8.31015 15.5767C8.31026 15.7598 8.38309 15.9353 8.51262 16.0647C8.64216 16.1941 8.81778 16.2667 9.00085 16.2666C9.18392 16.2665 9.35945 16.1936 9.48882 16.0641C9.6182 15.9346 9.69081 15.759 9.6907 15.5759L9.68985 9.68965L15.5761 9.69049Z" fill="#0057B1"/>
</svg>