<svg xmlns="http://www.w3.org/2000/svg" width="13" height="14" viewBox="0 0 13 14" fill="none">
  <path d="M11.8256 6.16857L6.40444 11.5897C5.36264 12.6315 3.67501 12.6315 2.63321 11.5897C1.5914 10.5479 1.5914 8.86029 2.63321 7.81848L8.52576 1.92593C8.83832 1.61337 9.26225 1.43777 9.70427 1.43777C10.1463 1.43777 10.5702 1.61337 10.8828 1.92593C11.1953 2.23849 11.3709 2.66241 11.3709 3.10444C11.3709 3.54647 11.1953 3.97039 10.8828 4.28295L5.93304 9.2327C5.67376 9.49197 5.2495 9.49197 4.99023 9.2327C4.73096 8.97342 4.73096 8.54916 4.99023 8.28989L9.46857 3.81154L8.76146 3.10444L4.28312 7.58278C3.97056 7.89534 3.79497 8.31927 3.79497 8.76129C3.79497 9.20332 3.97056 9.62724 4.28312 9.9398C4.59568 10.2524 5.01961 10.428 5.46163 10.428C5.90366 10.428 6.32758 10.2524 6.64014 9.9398L11.5899 4.99006C12.6317 3.94825 12.6317 2.26062 11.5899 1.21882C10.5481 0.177016 8.86046 0.177016 7.81866 1.21882L1.9261 7.11138C0.493029 8.54445 0.493029 10.8638 1.9261 12.2968C3.35917 13.7299 5.67848 13.7299 7.11155 12.2968L12.5327 6.87567L11.8256 6.16857Z" fill="#0057B1"/>
</svg>