<svg xmlns="http://www.w3.org/2000/svg" width="29" height="28" viewBox="0 0 29 28" fill="none">
  <path d="M23.25 14C23.25 13.768 23.3422 13.5454 23.5063 13.3813C23.6704 13.2172 23.8929 13.125 24.125 13.125C24.3571 13.125 24.5796 13.2172 24.7437 13.3813C24.9078 13.5454 25 13.768 25 14V23.625C25 23.8571 24.9078 24.0797 24.7437 24.2437C24.5796 24.4078 24.3571 24.5 24.125 24.5H4.875C4.64294 24.5 4.42038 24.4078 4.25628 24.2437C4.09219 24.0797 4 23.8571 4 23.625V4.37503C4 4.14297 4.09219 3.92041 4.25628 3.75631C4.42038 3.59222 4.64294 3.50003 4.875 3.50003H14.5C14.7321 3.50003 14.9546 3.59222 15.1187 3.75631C15.2828 3.92041 15.375 4.14297 15.375 4.37503C15.375 4.6071 15.2828 4.82965 15.1187 4.99375C14.9546 5.15784 14.7321 5.25003 14.5 5.25003H5.75V22.75H23.25V14Z" fill="black"/>
  <path d="M13.3503 15.155L14.794 14.9485L23.663 6.08129C23.7466 6.00057 23.8132 5.90402 23.8591 5.79727C23.905 5.69052 23.9291 5.5757 23.9301 5.45952C23.9311 5.34333 23.909 5.22812 23.865 5.12058C23.821 5.01305 23.756 4.91535 23.6738 4.83319C23.5917 4.75104 23.494 4.68607 23.3865 4.64207C23.2789 4.59808 23.1637 4.57594 23.0475 4.57695C22.9313 4.57796 22.8165 4.60209 22.7098 4.64795C22.603 4.69381 22.5065 4.76047 22.4258 4.84404L13.555 13.7113L13.3485 15.155H13.3503ZM24.9003 3.60504C25.1442 3.84882 25.3377 4.13827 25.4697 4.45686C25.6017 4.77545 25.6697 5.11693 25.6697 5.46179C25.6697 5.80665 25.6017 6.14813 25.4697 6.46672C25.3377 6.78531 25.1442 7.07477 24.9003 7.31854L15.8265 16.3923C15.6927 16.5266 15.5189 16.6138 15.3313 16.6408L12.4438 17.0538C12.3092 17.0731 12.172 17.0608 12.043 17.0179C11.914 16.9749 11.7968 16.9025 11.7006 16.8064C11.6045 16.7103 11.5321 16.5931 11.4892 16.4641C11.4462 16.3351 11.4339 16.1979 11.4533 16.0633L11.8663 13.1758C11.8928 12.9884 11.9793 12.8146 12.113 12.6805L21.1885 3.60679C21.6808 3.11468 22.3483 2.83823 23.0444 2.83823C23.7404 2.83823 24.408 3.11468 24.9003 3.60679V3.60504Z" fill="black"/>
</svg>