<svg xmlns="http://www.w3.org/2000/svg" width="20" height="20" viewBox="0 0 20 20" fill="none">
  <path d="M2.20833 17.7916H3.66667L12.651 8.80718L11.1927 7.34885L2.20833 16.3332V17.7916ZM17.1042 7.29676L12.6771 2.92176L14.1354 1.46343C14.5347 1.06412 15.0253 0.864471 15.6073 0.864471C16.1892 0.864471 16.6795 1.06412 17.0781 1.46343L18.5365 2.92176C18.9358 3.32107 19.1441 3.80301 19.1615 4.3676C19.1788 4.93218 18.9878 5.41378 18.5885 5.81239L17.1042 7.29676ZM15.5938 8.83322L4.55208 19.8749H0.125V15.4478L11.1667 4.40614L15.5938 8.83322ZM11.9219 8.07801L11.1927 7.34885L12.651 8.80718L11.9219 8.07801Z" fill="#000000"/>
</svg>