<svg xmlns="http://www.w3.org/2000/svg" width="12" height="13" viewBox="0 0 14 13" fill="none">
    <path d="M1.3125 12.6C0.951563 12.6 0.642578 12.4457 0.385547 12.1371C0.128516 11.8285 0 11.4575 0 11.0241V1.56881C0 1.13544 0.128516 0.765625 0.385547 0.459375C0.642578 0.153125 0.951563 0 1.3125 0H12.6875C13.0484 0 13.3574 0.154306 13.6145 0.462919C13.8715 0.771531 14 1.14252 14 1.57587V11.0312C14 11.4646 13.8715 11.8344 13.6145 12.1406C13.3574 12.4469 13.0484 12.6 12.6875 12.6H1.3125ZM7 7.35L1.3125 3.43438V11.025H12.6875V3.43438L7 7.35ZM7 5.49063L12.6875 1.575H1.3125L7 5.49063ZM1.3125 3.43438V1.575V11.025V3.43438Z" fill="#475462"/>
</svg>