<svg xmlns="http://www.w3.org/2000/svg" width="8" height="10" viewBox="0 0 8 10" fill="none">
  <path d="M7.88183 4.11327L4.01971 0.500488L0.157587 4.11327C0.11202 4.1459 0.07444 4.18735 0.0473917 4.23482C0.0203434 4.2823 0.00445821 4.33468 0.000811318 4.38843C-0.00283557 4.44217 0.00584123 4.49603 0.026254 4.54635C0.0466669 4.59667 0.0783392 4.64228 0.119127 4.68008C0.159915 4.71789 0.208866 4.74702 0.262666 4.76549C0.316466 4.78397 0.373859 4.79136 0.43096 4.78716C0.48806 4.78296 0.543536 4.76728 0.59363 4.74117C0.643724 4.71506 0.687268 4.67914 0.721313 4.63583L3.6199 1.93282V9.12455C3.6199 9.22425 3.66203 9.31988 3.737 9.39038C3.81198 9.46088 3.91367 9.50049 4.01971 9.50049C4.12574 9.50049 4.22744 9.46088 4.30242 9.39038C4.37739 9.31988 4.41952 9.22425 4.41952 9.12455V1.93282L7.31811 4.63583C7.39339 4.70612 7.49529 4.74541 7.60138 4.74506C7.70748 4.74471 7.80908 4.70474 7.88383 4.63395C7.95859 4.56316 8.00037 4.46734 8 4.36758C7.99962 4.26782 7.95712 4.17228 7.88183 4.10199V4.11327Z" fill="white"/>
</svg>