<svg xmlns="http://www.w3.org/2000/svg" width="12" height="13" viewBox="0 0 10 12" fill="none">
    <path d="M4.8 6C5.13 6 5.4125 5.8825 5.6475 5.6475C5.8825 5.4125 6 5.13 6 4.8C6 4.47 5.8825 4.1875 5.6475 3.9525C5.4125 3.7175 5.13 3.6 4.8 3.6C4.47 3.6 4.1875 3.7175 3.9525 3.9525C3.7175 4.1875 3.6 4.47 3.6 4.8C3.6 5.13 3.7175 5.4125 3.9525 5.6475C4.1875 5.8825 4.47 6 4.8 6ZM4.8 10.41C6.02 9.29 6.925 8.2725 7.515 7.3575C8.105 6.4425 8.4 5.63 8.4 4.92C8.4 3.83 8.0525 2.9375 7.3575 2.2425C6.6625 1.5475 5.81 1.2 4.8 1.2C3.79 1.2 2.9375 1.5475 2.2425 2.2425C1.5475 2.9375 1.2 3.83 1.2 4.92C1.2 5.63 1.495 6.4425 2.085 7.3575C2.675 8.2725 3.58 9.29 4.8 10.41ZM4.8 12C3.19 10.63 1.9875 9.3575 1.1925 8.1825C0.3975 7.0075 0 5.92 0 4.92C0 3.42 0.4825 2.225 1.4475 1.335C2.4125 0.445 3.53 0 4.8 0C6.07 0 7.1875 0.445 8.1525 1.335C9.1175 2.225 9.6 3.42 9.6 4.92C9.6 5.92 9.2025 7.0075 8.4075 8.1825C7.6125 9.3575 6.41 10.63 4.8 12Z" fill="#475462"/>
</svg>