<svg xmlns="http://www.w3.org/2000/svg" width="12" height="13" viewBox="0 0 12 13" fill="none">
    <path d="M11.0539 12.5954C9.61397 12.4828 8.24839 12.1105 6.9572 11.4785C5.66601 10.8466 4.50869 9.99247 3.48525 8.91626C2.46182 7.84005 1.65557 6.62619 1.0665 5.27467C0.477426 3.92315 0.123388 2.4903 0.00438429 0.976096C-0.0194165 0.713301 0.0536876 0.484919 0.223697 0.290952C0.393694 0.0969839 0.6062 0 0.861214 0H3.2889C3.4912 0 3.66674 0.0656987 3.81549 0.197096C3.96425 0.328494 4.06242 0.494305 4.11003 0.69453L4.53844 2.68426C4.56224 2.84695 4.55332 3.00337 4.51167 3.15354C4.47001 3.30371 4.40159 3.42885 4.30638 3.52896L2.57487 5.36853C2.81288 5.84406 3.08659 6.30082 3.396 6.73882C3.70541 7.17681 4.05034 7.58967 4.43078 7.97741C4.78817 8.35303 5.16916 8.70039 5.57378 9.0195C5.97839 9.33861 6.40681 9.6233 6.85902 9.87358L8.62623 8.07156C8.72144 7.97145 8.84044 7.89949 8.98324 7.85569C9.12605 7.81189 9.27481 7.80251 9.42951 7.82754L11.3395 8.25927C11.5418 8.32184 11.7025 8.43134 11.8215 8.58777C11.9405 8.74419 12 8.92877 12 9.14151V11.6944C12 11.9625 11.9048 12.186 11.7144 12.3648C11.524 12.5435 11.3038 12.6204 11.0539 12.5954ZM1.9858 4.05455L3.23535 2.74058L2.92903 1.35152H1.32533C1.38483 1.82705 1.46813 2.28694 1.57524 2.73119C1.68234 3.17544 1.8192 3.61656 1.9858 4.05455ZM8.12642 10.5118C8.54412 10.69 8.96986 10.8316 9.40363 10.9364C9.8374 11.0413 10.2744 11.125 10.7148 11.1876V9.49816L9.37596 9.19783L8.12642 10.5118Z" fill="#475462"/>
</svg>