<svg xmlns="http://www.w3.org/2000/svg" width="5.6" height="5.6" viewBox="0 0 3 3" fill="none">
  <path d="M1.5 2.99988C1.10218 2.99988 0.720644 2.84184 0.43934 2.56054C0.158035 2.27923 0 1.8977 0 1.49988C0 1.10205 0.158035 0.720522 0.43934 0.439218C0.720644 0.157913 1.10218 -0.00012207 1.5 -0.00012207C1.89782 -0.00012207 2.27936 0.157913 2.56066 0.439218C2.84196 0.720522 3 1.10205 3 1.49988C3 1.8977 2.84196 2.27923 2.56066 2.56054C2.27936 2.84184 1.89782 2.99988 1.5 2.99988ZM1.5 2.62488C1.79837 2.62488 2.08452 2.50635 2.2955 2.29537C2.50647 2.08439 2.625 1.79825 2.625 1.49988C2.625 1.20151 2.50647 0.915361 2.2955 0.704383C2.08452 0.493404 1.79837 0.374878 1.5 0.374878C1.20163 0.374878 0.915483 0.493404 0.704505 0.704383C0.493527 0.915361 0.375 1.20151 0.375 1.49988C0.375 1.79825 0.493527 2.08439 0.704505 2.29537C0.915483 2.50635 1.20163 2.62488 1.5 2.62488Z" fill="black"/>
</svg>