<svg xmlns="http://www.w3.org/2000/svg" width="12" height="13" viewBox="0 0 12 13" fill="none">
    <path d="M1.2 12.6001C0.87 12.6001 0.5875 12.4702 0.3525 12.2105C0.1175 11.9508 0 11.6385 0 11.2738V3.97898C0 3.61424 0.1175 3.302 0.3525 3.04226C0.5875 2.78252 0.87 2.65265 1.2 2.65265H3.6V1.32633C3.6 0.961586 3.7175 0.649347 3.9525 0.389608C4.1875 0.129869 4.47 0 4.8 0H7.2C7.53 0 7.8125 0.129869 8.0475 0.389608C8.2825 0.649347 8.4 0.961586 8.4 1.32633V2.65265H10.8C11.13 2.65265 11.4125 2.78252 11.6475 3.04226C11.8825 3.302 12 3.61424 12 3.97898V11.2738C12 11.6385 11.8825 11.9508 11.6475 12.2105C11.4125 12.4702 11.13 12.6001 10.8 12.6001H1.2ZM4.8 2.65265H7.2V1.32633H4.8V2.65265ZM10.8 8.62112H7.8V9.94744H4.2V8.62112H1.2V11.2738H10.8V8.62112ZM5.4 8.62112H6.6V7.29479H5.4V8.62112ZM1.2 7.29479H4.2V5.96847H7.8V7.29479H10.8V3.97898H1.2V7.29479Z" fill="#475462"/>
</svg>