<svg width="16" height="16" viewBox="0 0 16 16" fill="none" xmlns="http://www.w3.org/2000/svg">
<g id="Frame 499">
<path id="Vector" d="M11.5 6C13.0225 6.00831 13.8471 6.07547 14.3847 6.60725C15 7.21588 15 8.19495 15 10.1531V10.8455C15 12.8044 15 13.7834 14.3847 14.3921C13.7701 15 12.7796 15 10.8 15H5.2C3.2204 15 2.2299 15 1.6153 14.3921C1 13.7827 1 12.8044 1 10.8455V10.1531C1 8.19495 1 7.21588 1.6153 6.60725C2.1529 6.07547 2.9775 6.00831 4.5 6" stroke="white" stroke-linecap="round"/>
<path id="Vector_2" d="M8 1V10M8 10L6 7.57692M8 10L10 7.57692" stroke="white" stroke-linecap="round" stroke-linejoin="round"/>
</g>
</svg>
