<svg xmlns="http://www.w3.org/2000/svg" width="21" height="18" viewBox="0 0 21 18" fill="none">
  <path d="M17.7682 2.32794C16.4382 1.70794 14.9982 1.25794 13.4982 0.99794C13.485 0.99752 13.4719 0.999988 13.4598 1.00517C13.4477 1.01035 13.4369 1.01813 13.4282 1.02794C13.2482 1.35794 13.0382 1.78794 12.8982 2.11794C11.3072 1.87794 9.68916 1.87794 8.09816 2.11794C7.95816 1.77794 7.74816 1.35794 7.55816 1.02794C7.54816 1.00794 7.51816 0.99794 7.48816 0.99794C5.98816 1.25794 4.55816 1.70794 3.21816 2.32794C3.20816 2.32794 3.19816 2.33794 3.18816 2.34794C0.468164 6.41794 -0.281836 10.3779 0.0881641 14.2979C0.0881641 14.3179 0.0981641 14.3379 0.118164 14.3479C1.91816 15.6679 3.64816 16.4679 5.35816 16.9979C5.38816 17.0079 5.41816 16.9979 5.42816 16.9779C5.82816 16.4279 6.18816 15.8479 6.49816 15.2379C6.51816 15.1979 6.49816 15.1579 6.45816 15.1479C5.88816 14.9279 5.34816 14.6679 4.81816 14.3679C4.77816 14.3479 4.77816 14.2879 4.80816 14.2579C4.91816 14.1779 5.02816 14.0879 5.13816 14.0079C5.15816 13.9879 5.18816 13.9879 5.20816 13.9979C8.64816 15.5679 12.3582 15.5679 15.7582 13.9979C15.7782 13.9879 15.8082 13.9879 15.8282 14.0079C15.9382 14.0979 16.0482 14.1779 16.1582 14.2679C16.1982 14.2979 16.1982 14.3579 16.1482 14.3779C15.6282 14.6879 15.0782 14.9379 14.5082 15.1579C14.4682 15.1679 14.4582 15.2179 14.4682 15.2479C14.7882 15.8579 15.1482 16.4379 15.5382 16.9879C15.5682 16.9979 15.5982 17.0079 15.6282 16.9979C17.3482 16.4679 19.0782 15.6679 20.8782 14.3479C20.8982 14.3379 20.9082 14.3179 20.9082 14.2979C21.3482 9.76794 20.1782 5.83794 17.8082 2.34794C17.7982 2.33794 17.7882 2.32794 17.7682 2.32794ZM7.01816 11.9079C5.98816 11.9079 5.12816 10.9579 5.12816 9.78794C5.12816 8.61794 5.96816 7.66794 7.01816 7.66794C8.07817 7.66794 8.91816 8.62794 8.90816 9.78794C8.90816 10.9579 8.06816 11.9079 7.01816 11.9079ZM13.9882 11.9079C12.9582 11.9079 12.0982 10.9579 12.0982 9.78794C12.0982 8.61794 12.9382 7.66794 13.9882 7.66794C15.0482 7.66794 15.8882 8.62794 15.8782 9.78794C15.8782 10.9579 15.0482 11.9079 13.9882 11.9079Z" fill="white"/>
</svg>