<svg width="132" height="88" viewBox="0 0 132 88" fill="none" xmlns="http://www.w3.org/2000/svg">
<path d="M130.494 0.421472C130.45 0.148757 130.194 -0.0371647 129.921 0.00620514L125.477 0.712957C125.205 0.756327 125.019 1.01256 125.062 1.28528C125.105 1.558 125.362 1.74392 125.634 1.70055L129.585 1.07232L130.213 5.02268C130.256 5.2954 130.513 5.48132 130.785 5.43795C131.058 5.39458 131.244 5.13834 131.201 4.86563L130.494 0.421472ZM0.292433 84.9549C3.64167 86.4832 8.17748 87.4896 13.7467 87.5292L13.7538 86.5292C8.29522 86.4904 3.90377 85.5036 0.707567 84.0451L0.292433 84.9549ZM40.3585 81.8186C47.6525 78.886 55.6559 74.6709 64.2639 68.8317L63.7025 68.0041C55.1476 73.8074 47.2069 77.9874 39.9855 80.8907L40.3585 81.8186ZM85.6152 51.9012C91.7919 46.3048 98.1901 39.9068 104.781 32.6129L104.039 31.9424C97.4689 39.2134 91.0941 45.5876 84.9438 51.1602L85.6152 51.9012ZM122.215 11.7208C124.92 8.2304 127.65 4.58992 130.405 0.793638L129.595 0.206362C126.847 3.99436 124.123 7.62643 121.425 11.1083L122.215 11.7208Z" fill="#5F5F5F"/>
</svg>
