<svg width="104" height="161" viewBox="0 0 104 161" fill="none" xmlns="http://www.w3.org/2000/svg">
<path d="M5.39277 0.190178C5.22166 -0.0265616 4.90725 -0.0635514 4.69051 0.107559L1.15854 2.89596C0.941796 3.06707 0.904806 3.38148 1.07592 3.59822C1.24703 3.81496 1.56144 3.85195 1.77818 3.68084L4.91771 1.20226L7.39629 4.34179C7.5674 4.55853 7.88181 4.59552 8.09855 4.42441C8.31529 4.2533 8.35228 3.93889 8.18117 3.72215L5.39277 0.190178ZM103.869 157.338C104.055 157.135 104.042 156.819 103.839 156.632L100.524 153.588C100.321 153.401 100.004 153.415 99.8177 153.618C99.6309 153.821 99.6444 154.138 99.8477 154.324L102.794 157.03L100.088 159.976C99.9015 160.18 99.9149 160.496 100.118 160.683C100.322 160.869 100.638 160.856 100.825 160.653L103.869 157.338ZM4.50375 0.441579C4.01709 4.5782 3.63166 9.02485 3.3771 13.7079L4.37562 13.7621C4.62909 9.09929 5.01277 4.67353 5.49691 0.558421L4.50375 0.441579ZM3.42014 40.3942C3.91379 49.0478 4.89837 57.9884 6.5046 66.8936L7.48872 66.7161C5.89046 57.8551 4.91013 48.955 4.41852 40.3373L3.42014 40.3942ZM13.1631 92.7329C16.1166 101.256 19.8213 109.431 24.4097 116.933L25.2628 116.411C20.7177 108.98 17.0418 100.872 14.108 92.4055L13.1631 92.7329ZM41.4034 137.495C47.9181 143.264 55.443 148.03 64.1054 151.473L64.4748 150.544C55.9244 147.146 48.498 142.441 42.0663 136.746L41.4034 137.495ZM90.1042 157.299C94.3791 157.625 98.849 157.698 103.522 157.5L103.479 156.5C98.844 156.698 94.4138 156.625 90.1803 156.302L90.1042 157.299Z" fill="#5F5F5F"/>
</svg>