<svg width="37" height="136" viewBox="0 0 37 136" fill="none" xmlns="http://www.w3.org/2000/svg">
<path d="M2.19613 0.530022C1.93629 0.436544 1.64987 0.571404 1.55639 0.831246L0.0330645 5.06556C-0.0604121 5.32541 0.0744483 5.61183 0.334287 5.7053C0.59413 5.79879 0.880547 5.66392 0.974029 5.40408L2.32809 1.64024L6.09193 2.9943C6.35178 3.08779 6.63819 2.95292 6.73167 2.69309C6.82515 2.43324 6.69029 2.14683 6.43045 2.05335L2.19613 0.530022ZM17.5903 134.438C17.3517 134.577 17.2709 134.883 17.4098 135.121C17.5488 135.36 17.8549 135.441 18.0935 135.302L17.5903 134.438ZM1.57451 1.2135C2.98731 4.21403 4.864 7.93131 7.00957 12.1922L7.90272 11.7424C5.75447 7.47623 3.88503 3.77315 2.47923 0.787507L1.57451 1.2135ZM17.7444 34.2698C21.0202 41.4173 24.2809 49.0772 27.12 56.8989L28.06 56.5577C25.209 48.7032 21.9368 41.0172 18.6535 33.8532L17.7444 34.2698ZM33.9424 80.3863C35.677 88.8554 36.4316 97.0844 35.6972 104.63L36.6925 104.727C37.4396 97.0516 36.6694 88.7174 34.9221 80.1856L33.9424 80.3863ZM26.9176 126.782C24.4208 129.68 21.3391 132.255 17.5903 134.438L18.0935 135.302C21.9335 133.066 25.1024 130.421 27.6752 127.435L26.9176 126.782Z" fill="#5F5F5F"/>
</svg>
