<svg width="206" height="79" viewBox="0 0 206 79" fill="none" xmlns="http://www.w3.org/2000/svg">
<path d="M2.1443 0.521276C1.87991 0.441579 1.60097 0.591304 1.52128 0.855696L0.222538 5.16421C0.142841 5.4286 0.292566 5.70754 0.556958 5.78724C0.821349 5.86693 1.10029 5.71721 1.17999 5.45282L2.33442 1.62303L6.16421 2.77746C6.4286 2.85716 6.70754 2.70743 6.78724 2.44304C6.86693 2.17865 6.71721 1.89971 6.45282 1.82001L2.1443 0.521276ZM205.991 48.0929C206.043 47.8216 205.864 47.56 205.593 47.5087L201.171 46.6727C200.9 46.6214 200.638 46.7998 200.587 47.0711C200.536 47.3425 200.714 47.604 200.985 47.6553L204.916 48.3984L204.173 52.3288C204.121 52.6001 204.3 52.8617 204.571 52.913C204.842 52.9643 205.104 52.7859 205.155 52.5146L205.991 48.0929ZM1.55945 1.23647C3.33746 4.54893 5.38297 8.00648 7.68779 11.543L8.52558 10.997C6.23564 7.48332 4.20467 4.05012 2.44055 0.76353L1.55945 1.23647ZM22.259 30.6299C27.3709 36.4059 33.1121 42.0878 39.45 47.4038L40.0927 46.6377C33.7954 41.3558 28.0895 35.709 23.0079 29.9671L22.259 30.6299ZM59.0345 61.2919C65.8169 65.2849 73.0706 68.7603 80.7708 71.5116L81.1072 70.5699C73.471 67.8414 66.2743 64.3937 59.5418 60.4302L59.0345 61.2919ZM104.081 77.2394C111.746 78.2959 119.749 78.6078 128.074 78.0263L128.004 77.0288C119.75 77.6054 111.815 77.2959 104.218 76.2488L104.081 77.2394ZM151.762 74.0594C159.101 72.1251 166.644 69.4901 174.383 66.0717L173.979 65.157C166.286 68.555 158.792 71.1721 151.507 73.0924L151.762 74.0594ZM195.68 54.9159C199.016 52.8965 202.383 50.7308 205.782 48.4131L205.218 47.5869C201.834 49.8948 198.482 52.0506 195.162 54.0605L195.68 54.9159Z" fill="#5F5F5F"/>
</svg>
