<svg width="96" height="70" viewBox="0 0 96 70" fill="none" xmlns="http://www.w3.org/2000/svg">
<path d="M2.54764 68.8432C2.66527 69.093 2.96316 69.2002 3.213 69.0826L7.28427 67.1656C7.5341 67.048 7.64127 66.7501 7.52363 66.5003C7.406 66.2504 7.10811 66.1433 6.85827 66.2609L3.23937 67.9649L1.5354 64.346C1.41776 64.0961 1.11987 63.9889 0.870038 64.1066C0.620204 64.2242 0.513036 64.5221 0.630671 64.7719L2.54764 68.8432ZM94.8724 3.61366C95.1394 3.68414 95.4129 3.52484 95.4834 3.25785C95.5539 2.99085 95.3946 2.71727 95.1276 2.64678L94.8724 3.61366ZM3.47048 68.7995C4.99647 64.5577 7.06459 59.73 9.65821 54.6523L8.76766 54.1974C6.15577 59.3109 4.07055 64.1774 2.52952 68.461L3.47048 68.7995ZM26.7296 28.9686C33.3934 21.2123 41.2498 14.2112 50.2307 9.21882L49.7449 8.34479C40.6361 13.4083 32.6912 20.4951 25.9711 28.3169L26.7296 28.9686ZM79.6501 1.50294C84.517 1.55213 89.5926 2.2198 94.8724 3.61366L95.1276 2.64678C89.7704 1.23246 84.6125 0.553048 79.6603 0.502992L79.6501 1.50294Z" fill="#5F5F5F"/>
</svg>
