<svg xmlns="http://www.w3.org/2000/svg" width="22" height="22" viewBox="0 0 22 22" fill="none">
  <path d="M20.8762 6.07607C19.962 9.64294 18.1059 12.8985 15.5022 15.5022C12.8985 18.1059 9.64294 19.962 6.07607 20.8762C3.33166 21.5748 1 19.2149 1 16.382V15.1002C1 14.3926 1.57554 13.8248 2.27927 13.7543C3.44641 13.6392 4.59208 13.3636 5.68383 12.9352L7.63222 14.8836C10.8047 13.3629 13.3629 10.8047 14.8836 7.63222L12.9352 5.68383C13.364 4.59215 13.6401 3.44648 13.7556 2.27927C13.8248 1.57426 14.3926 1 15.1002 1H16.382C19.2149 1 21.5748 3.33166 20.8762 6.07607Z" stroke="#0057B1" stroke-width="2" stroke-linecap="round" stroke-linejoin="round"/>
</svg>