<svg xmlns="http://www.w3.org/2000/svg" width="29" height="29" viewBox="0 0 29 29" fill="none">
  <path fill-rule="evenodd" clip-rule="evenodd" d="M18.8386 19.9282C18.9101 19.9997 18.9949 20.0565 19.0883 20.0952C19.1817 20.134 19.2818 20.154 19.3829 20.154C19.484 20.1541 19.5842 20.1342 19.6776 20.0956C19.771 20.057 19.856 20.0003 19.9275 19.9289C19.999 19.8574 20.0558 19.7726 20.0945 19.6792C20.1333 19.5858 20.1533 19.4857 20.1533 19.3846C20.1534 19.2835 20.1335 19.1833 20.0949 19.0899C20.0563 18.9964 19.9996 18.9115 19.9282 18.84L15.285 14.1968L19.9282 9.55492C20.0726 9.41044 20.1538 9.21448 20.1538 9.01016C20.1538 8.80583 20.0726 8.60987 19.9282 8.46539C19.7837 8.32091 19.5877 8.23975 19.3834 8.23975C19.1791 8.23975 18.9831 8.32091 18.8386 8.46539L14.1968 13.1086L9.5549 8.46539C9.48336 8.39386 9.39843 8.33711 9.30496 8.29839C9.21149 8.25967 9.11131 8.23975 9.01014 8.23975C8.90897 8.23975 8.80879 8.25967 8.71532 8.29839C8.62184 8.33711 8.53691 8.39386 8.46538 8.46539C8.32089 8.60987 8.23972 8.80583 8.23972 9.01016C8.23972 9.11133 8.25965 9.21151 8.29837 9.30498C8.33709 9.39845 8.39384 9.48338 8.46538 9.55492L13.1086 14.1968L8.46538 18.84C8.32107 18.9845 8.24007 19.1804 8.2402 19.3846C8.24032 19.5888 8.32156 19.7845 8.46604 19.9289C8.61052 20.0732 8.80641 20.1541 9.01061 20.154C9.21481 20.1539 9.4106 20.0727 9.5549 19.9282L14.1968 15.285L18.8386 19.9282Z" fill="black"/>
</svg>